# https://github.com/mikedh/trimesh
v 4.00000000 0.00000000 -3.00000000
v 10.00000000 0.00000000 -3.00000000
v 10.00000000 0.00000000 3.00000000
v 4.00000000 0.00000000 3.00000000
v 3.92314112 0.78036129 -3.00000000
v 9.80785280 1.95090322 -3.00000000
v 9.80785280 1.95090322 3.00000000
v 3.92314112 0.78036129 3.00000000
v 3.69551813 1.53073373 -3.00000000
v 9.23879533 3.82683432 -3.00000000
v 9.23879533 3.82683432 3.00000000
v 3.69551813 1.53073373 3.00000000
v 3.32587845 2.22228093 -3.00000000
v 8.31469612 5.55570233 -3.00000000
v 8.31469612 5.55570233 3.00000000
v 3.32587845 2.22228093 3.00000000
v 2.82842712 2.82842712 -3.00000000
v 7.07106781 7.07106781 -3.00000000
v 7.07106781 7.07106781 3.00000000
v 2.82842712 2.82842712 3.00000000
v 2.22228093 3.32587845 -3.00000000
v 5.55570233 8.31469612 -3.00000000
v 5.55570233 8.31469612 3.00000000
v 2.22228093 3.32587845 3.00000000
v 1.53073373 3.69551813 -3.00000000
v 3.82683432 9.23879533 -3.00000000
v 3.82683432 9.23879533 3.00000000
v 1.53073373 3.69551813 3.00000000
v 0.78036129 3.92314112 -3.00000000
v 1.95090322 9.80785280 -3.00000000
v 1.95090322 9.80785280 3.00000000
v 0.78036129 3.92314112 3.00000000
v 0.00000000 4.00000000 -3.00000000
v 0.00000000 10.00000000 -3.00000000
v 0.00000000 10.00000000 3.00000000
v 0.00000000 4.00000000 3.00000000
v -0.78036129 3.92314112 -3.00000000
v -1.95090322 9.80785280 -3.00000000
v -1.95090322 9.80785280 3.00000000
v -0.78036129 3.92314112 3.00000000
v -1.53073373 3.69551813 -3.00000000
v -3.82683432 9.23879533 -3.00000000
v -3.82683432 9.23879533 3.00000000
v -1.53073373 3.69551813 3.00000000
v -2.22228093 3.32587845 -3.00000000
v -5.55570233 8.31469612 -3.00000000
v -5.55570233 8.31469612 3.00000000
v -2.22228093 3.32587845 3.00000000
v -2.82842712 2.82842712 -3.00000000
v -7.07106781 7.07106781 -3.00000000
v -7.07106781 7.07106781 3.00000000
v -2.82842712 2.82842712 3.00000000
v -3.32587845 2.22228093 -3.00000000
v -8.31469612 5.55570233 -3.00000000
v -8.31469612 5.55570233 3.00000000
v -3.32587845 2.22228093 3.00000000
v -3.69551813 1.53073373 -3.00000000
v -9.23879533 3.82683432 -3.00000000
v -9.23879533 3.82683432 3.00000000
v -3.69551813 1.53073373 3.00000000
v -3.92314112 0.78036129 -3.00000000
v -9.80785280 1.95090322 -3.00000000
v -9.80785280 1.95090322 3.00000000
v -3.92314112 0.78036129 3.00000000
v -4.00000000 0.00000000 -3.00000000
v -10.00000000 0.00000000 -3.00000000
v -10.00000000 0.00000000 3.00000000
v -4.00000000 0.00000000 3.00000000
v -3.92314112 -0.78036129 -3.00000000
v -9.80785280 -1.95090322 -3.00000000
v -9.80785280 -1.95090322 3.00000000
v -3.92314112 -0.78036129 3.00000000
v -3.69551813 -1.53073373 -3.00000000
v -9.23879533 -3.82683432 -3.00000000
v -9.23879533 -3.82683432 3.00000000
v -3.69551813 -1.53073373 3.00000000
v -3.32587845 -2.22228093 -3.00000000
v -8.31469612 -5.55570233 -3.00000000
v -8.31469612 -5.55570233 3.00000000
v -3.32587845 -2.22228093 3.00000000
v -2.82842712 -2.82842712 -3.00000000
v -7.07106781 -7.07106781 -3.00000000
v -7.07106781 -7.07106781 3.00000000
v -2.82842712 -2.82842712 3.00000000
v -2.22228093 -3.32587845 -3.00000000
v -5.55570233 -8.31469612 -3.00000000
v -5.55570233 -8.31469612 3.00000000
v -2.22228093 -3.32587845 3.00000000
v -1.53073373 -3.69551813 -3.00000000
v -3.82683432 -9.23879533 -3.00000000
v -3.82683432 -9.23879533 3.00000000
v -1.53073373 -3.69551813 3.00000000
v -0.78036129 -3.92314112 -3.00000000
v -1.95090322 -9.80785280 -3.00000000
v -1.95090322 -9.80785280 3.00000000
v -0.78036129 -3.92314112 3.00000000
v -0.00000000 -4.00000000 -3.00000000
v -0.00000000 -10.00000000 -3.00000000
v -0.00000000 -10.00000000 3.00000000
v -0.00000000 -4.00000000 3.00000000
v 0.78036129 -3.92314112 -3.00000000
v 1.95090322 -9.80785280 -3.00000000
v 1.95090322 -9.80785280 3.00000000
v 0.78036129 -3.92314112 3.00000000
v 1.53073373 -3.69551813 -3.00000000
v 3.82683432 -9.23879533 -3.00000000
v 3.82683432 -9.23879533 3.00000000
v 1.53073373 -3.69551813 3.00000000
v 2.22228093 -3.32587845 -3.00000000
v 5.55570233 -8.31469612 -3.00000000
v 5.55570233 -8.31469612 3.00000000
v 2.22228093 -3.32587845 3.00000000
v 2.82842712 -2.82842712 -3.00000000
v 7.07106781 -7.07106781 -3.00000000
v 7.07106781 -7.07106781 3.00000000
v 2.82842712 -2.82842712 3.00000000
v 3.32587845 -2.22228093 -3.00000000
v 8.31469612 -5.55570233 -3.00000000
v 8.31469612 -5.55570233 3.00000000
v 3.32587845 -2.22228093 3.00000000
v 3.69551813 -1.53073373 -3.00000000
v 9.23879533 -3.82683432 -3.00000000
v 9.23879533 -3.82683432 3.00000000
v 3.69551813 -1.53073373 3.00000000
v 3.92314112 -0.78036129 -3.00000000
v 9.80785280 -1.95090322 -3.00000000
v 9.80785280 -1.95090322 3.00000000
v 3.92314112 -0.78036129 3.00000000
f 1 5 2
f 2 5 6
f 2 6 3
f 3 6 7
f 3 7 4
f 4 7 8
f 4 8 1
f 1 8 5
f 5 9 6
f 6 9 10
f 6 10 7
f 7 10 11
f 7 11 8
f 8 11 12
f 8 12 5
f 5 12 9
f 9 13 10
f 10 13 14
f 10 14 11
f 11 14 15
f 11 15 12
f 12 15 16
f 12 16 9
f 9 16 13
f 13 17 14
f 14 17 18
f 14 18 15
f 15 18 19
f 15 19 16
f 16 19 20
f 16 20 13
f 13 20 17
f 17 21 18
f 18 21 22
f 18 22 19
f 19 22 23
f 19 23 20
f 20 23 24
f 20 24 17
f 17 24 21
f 21 25 22
f 22 25 26
f 22 26 23
f 23 26 27
f 23 27 24
f 24 27 28
f 24 28 21
f 21 28 25
f 25 29 26
f 26 29 30
f 26 30 27
f 27 30 31
f 27 31 28
f 28 31 32
f 28 32 25
f 25 32 29
f 29 33 30
f 30 33 34
f 30 34 31
f 31 34 35
f 31 35 32
f 32 35 36
f 32 36 29
f 29 36 33
f 33 37 34
f 34 37 38
f 34 38 35
f 35 38 39
f 35 39 36
f 36 39 40
f 36 40 33
f 33 40 37
f 37 41 38
f 38 41 42
f 38 42 39
f 39 42 43
f 39 43 40
f 40 43 44
f 40 44 37
f 37 44 41
f 41 45 42
f 42 45 46
f 42 46 43
f 43 46 47
f 43 47 44
f 44 47 48
f 44 48 41
f 41 48 45
f 45 49 46
f 46 49 50
f 46 50 47
f 47 50 51
f 47 51 48
f 48 51 52
f 48 52 45
f 45 52 49
f 49 53 50
f 50 53 54
f 50 54 51
f 51 54 55
f 51 55 52
f 52 55 56
f 52 56 49
f 49 56 53
f 53 57 54
f 54 57 58
f 54 58 55
f 55 58 59
f 55 59 56
f 56 59 60
f 56 60 53
f 53 60 57
f 57 61 58
f 58 61 62
f 58 62 59
f 59 62 63
f 59 63 60
f 60 63 64
f 60 64 57
f 57 64 61
f 61 65 62
f 62 65 66
f 62 66 63
f 63 66 67
f 63 67 64
f 64 67 68
f 64 68 61
f 61 68 65
f 65 69 66
f 66 69 70
f 66 70 67
f 67 70 71
f 67 71 68
f 68 71 72
f 68 72 65
f 65 72 69
f 69 73 70
f 70 73 74
f 70 74 71
f 71 74 75
f 71 75 72
f 72 75 76
f 72 76 69
f 69 76 73
f 73 77 74
f 74 77 78
f 74 78 75
f 75 78 79
f 75 79 76
f 76 79 80
f 76 80 73
f 73 80 77
f 77 81 78
f 78 81 82
f 78 82 79
f 79 82 83
f 79 83 80
f 80 83 84
f 80 84 77
f 77 84 81
f 81 85 82
f 82 85 86
f 82 86 83
f 83 86 87
f 83 87 84
f 84 87 88
f 84 88 81
f 81 88 85
f 85 89 86
f 86 89 90
f 86 90 87
f 87 90 91
f 87 91 88
f 88 91 92
f 88 92 85
f 85 92 89
f 89 93 90
f 90 93 94
f 90 94 91
f 91 94 95
f 91 95 92
f 92 95 96
f 92 96 89
f 89 96 93
f 93 97 94
f 94 97 98
f 94 98 95
f 95 98 99
f 95 99 96
f 96 99 100
f 96 100 93
f 93 100 97
f 97 101 98
f 98 101 102
f 98 102 99
f 99 102 103
f 99 103 100
f 100 103 104
f 100 104 97
f 97 104 101
f 101 105 102
f 102 105 106
f 102 106 103
f 103 106 107
f 103 107 104
f 104 107 108
f 104 108 101
f 101 108 105
f 105 109 106
f 106 109 110
f 106 110 107
f 107 110 111
f 107 111 108
f 108 111 112
f 108 112 105
f 105 112 109
f 109 113 110
f 110 113 114
f 110 114 111
f 111 114 115
f 111 115 112
f 112 115 116
f 112 116 109
f 109 116 113
f 113 117 114
f 114 117 118
f 114 118 115
f 115 118 119
f 115 119 116
f 116 119 120
f 116 120 113
f 113 120 117
f 117 121 118
f 118 121 122
f 118 122 119
f 119 122 123
f 119 123 120
f 120 123 124
f 120 124 117
f 117 124 121
f 121 125 122
f 122 125 126
f 122 126 123
f 123 126 127
f 123 127 124
f 124 127 128
f 124 128 121
f 121 128 125
f 125 1 126
f 126 1 2
f 126 2 127
f 127 2 3
f 127 3 128
f 128 3 4
f 128 4 125
f 125 4 1

