ISO-10303-21;
HEADER;
FILE_NAME('Open CASCADE Shape Model','2026-09-30T15:41:52',('Author'),(
    'Open CASCADE'),'Open CASCADE STEP processor 7.8','Open CASCADE 7.8'
  ,'Unknown');
FILE_DESCRIPTION(('Open CASCADE Model'),'2;1');
FILE_SCHEMA(('AUTOMOTIVE_DESIGN { 1 0 10303 214 1 1 1 1 }'));
ENDSEC;
DATA;
#1 = APPLICATION_PROTOCOL_DEFINITION('international standard',
  'automotive_design',2000,#2);
#2 = APPLICATION_CONTEXT(
  'core data for automotive mechanical design processes');
#3 = SHAPE_DEFINITION_REPRESENTATION(#4,#10);
#4 = PRODUCT_DEFINITION_SHAPE('','',#5);
#5 = PRODUCT_DEFINITION('design','',#6,#9);
#6 = PRODUCT_DEFINITION_FORMATION('','',#7);
#7 = PRODUCT('Open CASCADE STEP translator 7.8 1',
  'Open CASCADE STEP translator 7.8 1','',(#8));
#8 = PRODUCT_CONTEXT('',#2,'mechanical');
#9 = PRODUCT_DEFINITION_CONTEXT('part definition',#2,'design');
#10 = ADVANCED_BREP_SHAPE_REPRESENTATION('',(#11,#15),#58);
#11 = AXIS2_PLACEMENT_3D('',#12,#13,#14);
#12 = CARTESIAN_POINT('',(0.,0.,0.));
#13 = DIRECTION('',(0.,0.,1.));
#14 = DIRECTION('',(1.,0.,-0.));
#15 = MANIFOLD_SOLID_BREP('',#16);
#16 = CLOSED_SHELL('',(#17));
#17 = ADVANCED_FACE('',(#18),#22,.T.);
#18 = FACE_BOUND('',#19,.T.);
#19 = VERTEX_LOOP('',#20);
#20 = VERTEX_POINT('',#21);
#21 = CARTESIAN_POINT('',(-8.221245978027,1.380348728423,-18.1798171596)
  );
#22 = ( BOUNDED_SURFACE() B_SPLINE_SURFACE(2,2,(
    (#23,#24,#25,#26,#27)
    ,(#28,#29,#30,#31,#32)
    ,(#33,#34,#35,#36,#37)
    ,(#38,#39,#40,#41,#42)
    ,(#43,#44,#45,#46,#47)
    ,(#48,#49,#50,#51,#52)
    ,(#53,#54,#55,#56,#57
)),.UNSPECIFIED.,.T.,.F.,.F.) B_SPLINE_SURFACE_WITH_KNOTS((1,2,2,2,2,1),
  (3,2,3),(-2.094395102393,0.,2.094395102393,4.188790204786,
    6.28318530718,8.377580409573),(-1.570796326795,0.,1.570796326795),
.UNSPECIFIED.) GEOMETRIC_REPRESENTATION_ITEM() RATIONAL_B_SPLINE_SURFACE
((
    (1.,0.707106781187,1.,0.707106781187,1.)
    ,(0.5,0.353553390593,0.5,0.353553390593,0.5)
    ,(1.,0.707106781187,1.,0.707106781187,1.)
    ,(0.5,0.353553390593,0.5,0.353553390593,0.5)
    ,(1.,0.707106781187,1.,0.707106781187,1.)
    ,(0.5,0.353553390593,0.5,0.353553390593,0.5)
,(1.,0.707106781187,1.,0.707106781187,1.
))) REPRESENTATION_ITEM('') SURFACE() );
#23 = CARTESIAN_POINT('',(-8.221245978027,1.380348728423,-18.1798171596)
  );
#24 = CARTESIAN_POINT('',(-0.587483670539,7.091237501845,-21.19833044438
    ));
#25 = CARTESIAN_POINT('',(7.633762307488,5.710888773422,-3.018513284777)
  );
#26 = CARTESIAN_POINT('',(15.855008285515,4.330540044999,15.161303874829
    ));
#27 = CARTESIAN_POINT('',(8.221245978027,-1.380348728423,18.179817159606
    ));
#28 = CARTESIAN_POINT('',(-8.221245978027,1.380348728423,-18.1798171596)
  );
#29 = CARTESIAN_POINT('',(-9.21797351903,21.259096418907,-16.21973438913
    ));
#30 = CARTESIAN_POINT('',(-0.996727541003,19.878747690484,1.960082770471
    ));
#31 = CARTESIAN_POINT('',(7.224518437025,18.498398962061,20.139899930077
    ));
#32 = CARTESIAN_POINT('',(8.221245978027,-1.380348728423,18.179817159606
    ));
#33 = CARTESIAN_POINT('',(-8.221245978027,1.380348728423,-18.1798171596)
  );
#34 = CARTESIAN_POINT('',(-16.35337205601,5.608833800243,-14.18126248959
    ));
#35 = CARTESIAN_POINT('',(-8.132126077989,4.22848507182,3.998554670013)
  );
#36 = CARTESIAN_POINT('',(8.911990003781E-02,2.848136343397,
    22.178371829619));
#37 = CARTESIAN_POINT('',(8.221245978027,-1.380348728423,18.179817159606
    ));
#38 = CARTESIAN_POINT('',(-8.221245978027,1.380348728423,-18.1798171596)
  );
#39 = CARTESIAN_POINT('',(-23.488770593,-10.04142881842,-12.14279059005)
  );
#40 = CARTESIAN_POINT('',(-15.26752461497,-11.42177754684,6.037026569555
    ));
#41 = CARTESIAN_POINT('',(-7.046278636949,-12.80212627526,
    24.216843729161));
#42 = CARTESIAN_POINT('',(8.221245978027,-1.380348728423,18.179817159606
    ));
#43 = CARTESIAN_POINT('',(-8.221245978027,1.380348728423,-18.1798171596)
  );
#44 = CARTESIAN_POINT('',(-7.722882207526,-8.559025116819,
    -19.15985854484));
#45 = CARTESIAN_POINT('',(0.498363770501,-9.939373845242,-0.980041385235
    ));
#46 = CARTESIAN_POINT('',(8.719609748529,-11.31972257366,17.199775774371
    ));
#47 = CARTESIAN_POINT('',(8.221245978027,-1.380348728423,18.179817159606
    ));
#48 = CARTESIAN_POINT('',(-8.221245978027,1.380348728423,-18.1798171596)
  );
#49 = CARTESIAN_POINT('',(8.043006177952,-7.076621415217,-26.17692649963
    ));
#50 = CARTESIAN_POINT('',(16.264252155979,-8.45697014364,-7.997109340026
    ));
#51 = CARTESIAN_POINT('',(24.485498134006,-9.837318872063,
    10.182707819581));
#52 = CARTESIAN_POINT('',(8.221245978027,-1.380348728423,18.179817159606
    ));
#53 = CARTESIAN_POINT('',(-8.221245978027,1.380348728423,-18.1798171596)
  );
#54 = CARTESIAN_POINT('',(-0.587483670539,7.091237501845,-21.19833044438
    ));
#55 = CARTESIAN_POINT('',(7.633762307488,5.710888773422,-3.018513284777)
  );
#56 = CARTESIAN_POINT('',(15.855008285515,4.330540044999,15.161303874829
    ));
#57 = CARTESIAN_POINT('',(8.221245978027,-1.380348728423,18.179817159606
    ));
#58 = ( GEOMETRIC_REPRESENTATION_CONTEXT(3) 
GLOBAL_UNCERTAINTY_ASSIGNED_CONTEXT((#62)) GLOBAL_UNIT_ASSIGNED_CONTEXT(
(#59,#60,#61)) REPRESENTATION_CONTEXT('Context #1',
  '3D Context with UNIT and UNCERTAINTY') );
#59 = ( LENGTH_UNIT() NAMED_UNIT(*) SI_UNIT(.MILLI.,.METRE.) );
#60 = ( NAMED_UNIT(*) PLANE_ANGLE_UNIT() SI_UNIT($,.RADIAN.) );
#61 = ( NAMED_UNIT(*) SI_UNIT($,.STERADIAN.) SOLID_ANGLE_UNIT() );
#62 = UNCERTAINTY_MEASURE_WITH_UNIT(LENGTH_MEASURE(2.E-07),#59,
  'distance_accuracy_value','confusion accuracy');
#63 = PRODUCT_RELATED_PRODUCT_CATEGORY('part',$,(#7));
ENDSEC;
END-ISO-10303-21;
