solid 
facet normal -1.0 0.0 0.0
outer loop
vertex -30.0 -30.0 30.0
vertex -30.0 30.0 30.0
vertex -30.0 -30.0 -30.0
endloop
endfacet
facet normal 0.0 -1.0 0.0
outer loop
vertex 30.0 -30.0 -30.0
vertex -30.0 -30.0 30.0
vertex -30.0 -30.0 -30.0
endloop
endfacet
facet normal -1.0 0.0 0.0
outer loop
vertex -30.0 -30.0 -30.0
vertex -30.0 30.0 30.0
vertex -30.0 30.0 -30.0
endloop
endfacet
facet normal 0.0 0.0 -1.0
outer loop
vertex -30.0 30.0 -30.0
vertex 30.0 -30.0 -30.0
vertex -30.0 -30.0 -30.0
endloop
endfacet
facet normal 0.0 0.0 1.0
outer loop
vertex -30.0 -30.0 30.0
vertex 30.0 30.0 30.0
vertex -30.0 30.0 30.0
endloop
endfacet
facet normal 0.0 -1.0 0.0
outer loop
vertex 30.0 -30.0 30.0
vertex -30.0 -30.0 30.0
vertex 30.0 -30.0 -30.0
endloop
endfacet
facet normal 0.0 0.0 1.0
outer loop
vertex 30.0 -30.0 30.0
vertex 30.0 30.0 30.0
vertex -30.0 -30.0 30.0
endloop
endfacet
facet normal 0.0 1.0 0.0
outer loop
vertex -30.0 30.0 30.0
vertex 30.0 30.0 30.0
vertex -30.0 30.0 -30.0
endloop
endfacet
facet normal 0.0 0.0 -1.0
outer loop
vertex 30.0 30.0 -30.0
vertex 30.0 -30.0 -30.0
vertex -30.0 30.0 -30.0
endloop
endfacet
facet normal 0.0 1.0 0.0
outer loop
vertex -30.0 30.0 -30.0
vertex 30.0 30.0 30.0
vertex 30.0 30.0 -30.0
endloop
endfacet
facet normal 1.0 0.0 0.0
outer loop
vertex 30.0 30.0 -30.0
vertex 30.0 -30.0 30.0
vertex 30.0 -30.0 -30.0
endloop
endfacet
facet normal 1.0 0.0 0.0
outer loop
vertex 30.0 30.0 30.0
vertex 30.0 -30.0 30.0
vertex 30.0 30.0 -30.0
endloop
endfacet

endsolid
