ISO-10303-21;
HEADER;
FILE_NAME('Open CASCADE Shape Model','2026-09-30T02:09:48',('Author'),(
    'Open CASCADE'),'Open CASCADE STEP processor 7.8','Open CASCADE 7.8'
  ,'Unknown');
FILE_DESCRIPTION(('Open CASCADE Model'),'2;1');
FILE_SCHEMA(('AUTOMOTIVE_DESIGN { 1 0 10303 214 1 1 1 1 }'));
ENDSEC;
DATA;
#1 = APPLICATION_PROTOCOL_DEFINITION('international standard',
  'automotive_design',2000,#2);
#2 = APPLICATION_CONTEXT(
  'core data for automotive mechanical design processes');
#3 = SHAPE_DEFINITION_REPRESENTATION(#4,#10);
#4 = PRODUCT_DEFINITION_SHAPE('','',#5);
#5 = PRODUCT_DEFINITION('design','',#6,#9);
#6 = PRODUCT_DEFINITION_FORMATION('','',#7);
#7 = PRODUCT('Open CASCADE STEP translator 7.8 2',
  'Open CASCADE STEP translator 7.8 2','',(#8));
#8 = PRODUCT_CONTEXT('',#2,'mechanical');
#9 = PRODUCT_DEFINITION_CONTEXT('part definition',#2,'design');
#10 = ADVANCED_BREP_SHAPE_REPRESENTATION('',(#11,#15),#1480);
#11 = AXIS2_PLACEMENT_3D('',#12,#13,#14);
#12 = CARTESIAN_POINT('',(0.,0.,0.));
#13 = DIRECTION('',(0.,0.,1.));
#14 = DIRECTION('',(1.,0.,-0.));
#15 = MANIFOLD_SOLID_BREP('',#16);
#16 = CLOSED_SHELL('',(#17,#137,#213,#824,#873,#1447,#1454));
#17 = ADVANCED_FACE('',(#18),#32,.F.);
#18 = FACE_BOUND('',#19,.F.);
#19 = EDGE_LOOP('',(#20,#55,#83,#111));
#20 = ORIENTED_EDGE('',*,*,#21,.F.);
#21 = EDGE_CURVE('',#22,#24,#26,.T.);
#22 = VERTEX_POINT('',#23);
#23 = CARTESIAN_POINT('',(-10.,-10.,0.));
#24 = VERTEX_POINT('',#25);
#25 = CARTESIAN_POINT('',(-10.,-10.,10.));
#26 = SURFACE_CURVE('',#27,(#31,#43),.PCURVE_S1.);
#27 = LINE('',#28,#29);
#28 = CARTESIAN_POINT('',(-10.,-10.,0.));
#29 = VECTOR('',#30,1.);
#30 = DIRECTION('',(0.,0.,1.));
#31 = PCURVE('',#32,#37);
#32 = PLANE('',#33);
#33 = AXIS2_PLACEMENT_3D('',#34,#35,#36);
#34 = CARTESIAN_POINT('',(-10.,-10.,0.));
#35 = DIRECTION('',(1.,0.,-0.));
#36 = DIRECTION('',(0.,0.,1.));
#37 = DEFINITIONAL_REPRESENTATION('',(#38),#42);
#38 = LINE('',#39,#40);
#39 = CARTESIAN_POINT('',(0.,0.));
#40 = VECTOR('',#41,1.);
#41 = DIRECTION('',(1.,0.));
#42 = ( GEOMETRIC_REPRESENTATION_CONTEXT(2) 
PARAMETRIC_REPRESENTATION_CONTEXT() REPRESENTATION_CONTEXT('2D SPACE',''
  ) );
#43 = PCURVE('',#44,#49);
#44 = PLANE('',#45);
#45 = AXIS2_PLACEMENT_3D('',#46,#47,#48);
#46 = CARTESIAN_POINT('',(-10.,-10.,0.));
#47 = DIRECTION('',(-0.,1.,0.));
#48 = DIRECTION('',(0.,0.,1.));
#49 = DEFINITIONAL_REPRESENTATION('',(#50),#54);
#50 = LINE('',#51,#52);
#51 = CARTESIAN_POINT('',(0.,0.));
#52 = VECTOR('',#53,1.);
#53 = DIRECTION('',(1.,0.));
#54 = ( GEOMETRIC_REPRESENTATION_CONTEXT(2) 
PARAMETRIC_REPRESENTATION_CONTEXT() REPRESENTATION_CONTEXT('2D SPACE',''
  ) );
#55 = ORIENTED_EDGE('',*,*,#56,.T.);
#56 = EDGE_CURVE('',#22,#57,#59,.T.);
#57 = VERTEX_POINT('',#58);
#58 = CARTESIAN_POINT('',(-10.,10.,0.));
#59 = SURFACE_CURVE('',#60,(#64,#71),.PCURVE_S1.);
#60 = LINE('',#61,#62);
#61 = CARTESIAN_POINT('',(-10.,-10.,0.));
#62 = VECTOR('',#63,1.);
#63 = DIRECTION('',(-0.,1.,0.));
#64 = PCURVE('',#32,#65);
#65 = DEFINITIONAL_REPRESENTATION('',(#66),#70);
#66 = LINE('',#67,#68);
#67 = CARTESIAN_POINT('',(0.,0.));
#68 = VECTOR('',#69,1.);
#69 = DIRECTION('',(0.,-1.));
#70 = ( GEOMETRIC_REPRESENTATION_CONTEXT(2) 
PARAMETRIC_REPRESENTATION_CONTEXT() REPRESENTATION_CONTEXT('2D SPACE',''
  ) );
#71 = PCURVE('',#72,#77);
#72 = PLANE('',#73);
#73 = AXIS2_PLACEMENT_3D('',#74,#75,#76);
#74 = CARTESIAN_POINT('',(-10.,-10.,0.));
#75 = DIRECTION('',(0.,0.,1.));
#76 = DIRECTION('',(1.,0.,-0.));
#77 = DEFINITIONAL_REPRESENTATION('',(#78),#82);
#78 = LINE('',#79,#80);
#79 = CARTESIAN_POINT('',(0.,0.));
#80 = VECTOR('',#81,1.);
#81 = DIRECTION('',(0.,1.));
#82 = ( GEOMETRIC_REPRESENTATION_CONTEXT(2) 
PARAMETRIC_REPRESENTATION_CONTEXT() REPRESENTATION_CONTEXT('2D SPACE',''
  ) );
#83 = ORIENTED_EDGE('',*,*,#84,.T.);
#84 = EDGE_CURVE('',#57,#85,#87,.T.);
#85 = VERTEX_POINT('',#86);
#86 = CARTESIAN_POINT('',(-10.,10.,10.));
#87 = SURFACE_CURVE('',#88,(#92,#99),.PCURVE_S1.);
#88 = LINE('',#89,#90);
#89 = CARTESIAN_POINT('',(-10.,10.,0.));
#90 = VECTOR('',#91,1.);
#91 = DIRECTION('',(0.,0.,1.));
#92 = PCURVE('',#32,#93);
#93 = DEFINITIONAL_REPRESENTATION('',(#94),#98);
#94 = LINE('',#95,#96);
#95 = CARTESIAN_POINT('',(0.,-20.));
#96 = VECTOR('',#97,1.);
#97 = DIRECTION('',(1.,0.));
#98 = ( GEOMETRIC_REPRESENTATION_CONTEXT(2) 
PARAMETRIC_REPRESENTATION_CONTEXT() REPRESENTATION_CONTEXT('2D SPACE',''
  ) );
#99 = PCURVE('',#100,#105);
#100 = PLANE('',#101);
#101 = AXIS2_PLACEMENT_3D('',#102,#103,#104);
#102 = CARTESIAN_POINT('',(-10.,10.,0.));
#103 = DIRECTION('',(-0.,1.,0.));
#104 = DIRECTION('',(0.,0.,1.));
#105 = DEFINITIONAL_REPRESENTATION('',(#106),#110);
#106 = LINE('',#107,#108);
#107 = CARTESIAN_POINT('',(0.,0.));
#108 = VECTOR('',#109,1.);
#109 = DIRECTION('',(1.,0.));
#110 = ( GEOMETRIC_REPRESENTATION_CONTEXT(2) 
PARAMETRIC_REPRESENTATION_CONTEXT() REPRESENTATION_CONTEXT('2D SPACE',''
  ) );
#111 = ORIENTED_EDGE('',*,*,#112,.F.);
#112 = EDGE_CURVE('',#24,#85,#113,.T.);
#113 = SURFACE_CURVE('',#114,(#118,#125),.PCURVE_S1.);
#114 = LINE('',#115,#116);
#115 = CARTESIAN_POINT('',(-10.,-10.,10.));
#116 = VECTOR('',#117,1.);
#117 = DIRECTION('',(-0.,1.,0.));
#118 = PCURVE('',#32,#119);
#119 = DEFINITIONAL_REPRESENTATION('',(#120),#124);
#120 = LINE('',#121,#122);
#121 = CARTESIAN_POINT('',(10.,0.));
#122 = VECTOR('',#123,1.);
#123 = DIRECTION('',(0.,-1.));
#124 = ( GEOMETRIC_REPRESENTATION_CONTEXT(2) 
PARAMETRIC_REPRESENTATION_CONTEXT() REPRESENTATION_CONTEXT('2D SPACE',''
  ) );
#125 = PCURVE('',#126,#131);
#126 = PLANE('',#127);
#127 = AXIS2_PLACEMENT_3D('',#128,#129,#130);
#128 = CARTESIAN_POINT('',(-10.,-10.,10.));
#129 = DIRECTION('',(0.,0.,1.));
#130 = DIRECTION('',(1.,0.,-0.));
#131 = DEFINITIONAL_REPRESENTATION('',(#132),#136);
#132 = LINE('',#133,#134);
#133 = CARTESIAN_POINT('',(0.,0.));
#134 = VECTOR('',#135,1.);
#135 = DIRECTION('',(0.,1.));
#136 = ( GEOMETRIC_REPRESENTATION_CONTEXT(2) 
PARAMETRIC_REPRESENTATION_CONTEXT() REPRESENTATION_CONTEXT('2D SPACE',''
  ) );
#137 = ADVANCED_FACE('',(#138),#44,.F.);
#138 = FACE_BOUND('',#139,.F.);
#139 = EDGE_LOOP('',(#140,#163,#164,#187));
#140 = ORIENTED_EDGE('',*,*,#141,.F.);
#141 = EDGE_CURVE('',#22,#142,#144,.T.);
#142 = VERTEX_POINT('',#143);
#143 = CARTESIAN_POINT('',(10.,-10.,0.));
#144 = SURFACE_CURVE('',#145,(#149,#156),.PCURVE_S1.);
#145 = LINE('',#146,#147);
#146 = CARTESIAN_POINT('',(-10.,-10.,0.));
#147 = VECTOR('',#148,1.);
#148 = DIRECTION('',(1.,0.,-0.));
#149 = PCURVE('',#44,#150);
#150 = DEFINITIONAL_REPRESENTATION('',(#151),#155);
#151 = LINE('',#152,#153);
#152 = CARTESIAN_POINT('',(0.,0.));
#153 = VECTOR('',#154,1.);
#154 = DIRECTION('',(0.,1.));
#155 = ( GEOMETRIC_REPRESENTATION_CONTEXT(2) 
PARAMETRIC_REPRESENTATION_CONTEXT() REPRESENTATION_CONTEXT('2D SPACE',''
  ) );
#156 = PCURVE('',#72,#157);
#157 = DEFINITIONAL_REPRESENTATION('',(#158),#162);
#158 = LINE('',#159,#160);
#159 = CARTESIAN_POINT('',(0.,0.));
#160 = VECTOR('',#161,1.);
#161 = DIRECTION('',(1.,0.));
#162 = ( GEOMETRIC_REPRESENTATION_CONTEXT(2) 
PARAMETRIC_REPRESENTATION_CONTEXT() REPRESENTATION_CONTEXT('2D SPACE',''
  ) );
#163 = ORIENTED_EDGE('',*,*,#21,.T.);
#164 = ORIENTED_EDGE('',*,*,#165,.T.);
#165 = EDGE_CURVE('',#24,#166,#168,.T.);
#166 = VERTEX_POINT('',#167);
#167 = CARTESIAN_POINT('',(10.,-10.,10.));
#168 = SURFACE_CURVE('',#169,(#173,#180),.PCURVE_S1.);
#169 = LINE('',#170,#171);
#170 = CARTESIAN_POINT('',(-10.,-10.,10.));
#171 = VECTOR('',#172,1.);
#172 = DIRECTION('',(1.,0.,-0.));
#173 = PCURVE('',#44,#174);
#174 = DEFINITIONAL_REPRESENTATION('',(#175),#179);
#175 = LINE('',#176,#177);
#176 = CARTESIAN_POINT('',(10.,0.));
#177 = VECTOR('',#178,1.);
#178 = DIRECTION('',(0.,1.));
#179 = ( GEOMETRIC_REPRESENTATION_CONTEXT(2) 
PARAMETRIC_REPRESENTATION_CONTEXT() REPRESENTATION_CONTEXT('2D SPACE',''
  ) );
#180 = PCURVE('',#126,#181);
#181 = DEFINITIONAL_REPRESENTATION('',(#182),#186);
#182 = LINE('',#183,#184);
#183 = CARTESIAN_POINT('',(0.,0.));
#184 = VECTOR('',#185,1.);
#185 = DIRECTION('',(1.,0.));
#186 = ( GEOMETRIC_REPRESENTATION_CONTEXT(2) 
PARAMETRIC_REPRESENTATION_CONTEXT() REPRESENTATION_CONTEXT('2D SPACE',''
  ) );
#187 = ORIENTED_EDGE('',*,*,#188,.F.);
#188 = EDGE_CURVE('',#142,#166,#189,.T.);
#189 = SURFACE_CURVE('',#190,(#194,#201),.PCURVE_S1.);
#190 = LINE('',#191,#192);
#191 = CARTESIAN_POINT('',(10.,-10.,0.));
#192 = VECTOR('',#193,1.);
#193 = DIRECTION('',(0.,0.,1.));
#194 = PCURVE('',#44,#195);
#195 = DEFINITIONAL_REPRESENTATION('',(#196),#200);
#196 = LINE('',#197,#198);
#197 = CARTESIAN_POINT('',(0.,20.));
#198 = VECTOR('',#199,1.);
#199 = DIRECTION('',(1.,0.));
#200 = ( GEOMETRIC_REPRESENTATION_CONTEXT(2) 
PARAMETRIC_REPRESENTATION_CONTEXT() REPRESENTATION_CONTEXT('2D SPACE',''
  ) );
#201 = PCURVE('',#202,#207);
#202 = PLANE('',#203);
#203 = AXIS2_PLACEMENT_3D('',#204,#205,#206);
#204 = CARTESIAN_POINT('',(10.,-10.,0.));
#205 = DIRECTION('',(1.,0.,-0.));
#206 = DIRECTION('',(0.,0.,1.));
#207 = DEFINITIONAL_REPRESENTATION('',(#208),#212);
#208 = LINE('',#209,#210);
#209 = CARTESIAN_POINT('',(0.,0.));
#210 = VECTOR('',#211,1.);
#211 = DIRECTION('',(1.,0.));
#212 = ( GEOMETRIC_REPRESENTATION_CONTEXT(2) 
PARAMETRIC_REPRESENTATION_CONTEXT() REPRESENTATION_CONTEXT('2D SPACE',''
  ) );
#213 = ADVANCED_FACE('',(#214,#262),#126,.T.);
#214 = FACE_BOUND('',#215,.T.);
#215 = EDGE_LOOP('',(#216,#217,#218,#241));
#216 = ORIENTED_EDGE('',*,*,#112,.F.);
#217 = ORIENTED_EDGE('',*,*,#165,.T.);
#218 = ORIENTED_EDGE('',*,*,#219,.T.);
#219 = EDGE_CURVE('',#166,#220,#222,.T.);
#220 = VERTEX_POINT('',#221);
#221 = CARTESIAN_POINT('',(10.,10.,10.));
#222 = SURFACE_CURVE('',#223,(#227,#234),.PCURVE_S1.);
#223 = LINE('',#224,#225);
#224 = CARTESIAN_POINT('',(10.,-10.,10.));
#225 = VECTOR('',#226,1.);
#226 = DIRECTION('',(-0.,1.,0.));
#227 = PCURVE('',#126,#228);
#228 = DEFINITIONAL_REPRESENTATION('',(#229),#233);
#229 = LINE('',#230,#231);
#230 = CARTESIAN_POINT('',(20.,0.));
#231 = VECTOR('',#232,1.);
#232 = DIRECTION('',(0.,1.));
#233 = ( GEOMETRIC_REPRESENTATION_CONTEXT(2) 
PARAMETRIC_REPRESENTATION_CONTEXT() REPRESENTATION_CONTEXT('2D SPACE',''
  ) );
#234 = PCURVE('',#202,#235);
#235 = DEFINITIONAL_REPRESENTATION('',(#236),#240);
#236 = LINE('',#237,#238);
#237 = CARTESIAN_POINT('',(10.,0.));
#238 = VECTOR('',#239,1.);
#239 = DIRECTION('',(0.,-1.));
#240 = ( GEOMETRIC_REPRESENTATION_CONTEXT(2) 
PARAMETRIC_REPRESENTATION_CONTEXT() REPRESENTATION_CONTEXT('2D SPACE',''
  ) );
#241 = ORIENTED_EDGE('',*,*,#242,.F.);
#242 = EDGE_CURVE('',#85,#220,#243,.T.);
#243 = SURFACE_CURVE('',#244,(#248,#255),.PCURVE_S1.);
#244 = LINE('',#245,#246);
#245 = CARTESIAN_POINT('',(-10.,10.,10.));
#246 = VECTOR('',#247,1.);
#247 = DIRECTION('',(1.,0.,-0.));
#248 = PCURVE('',#126,#249);
#249 = DEFINITIONAL_REPRESENTATION('',(#250),#254);
#250 = LINE('',#251,#252);
#251 = CARTESIAN_POINT('',(0.,20.));
#252 = VECTOR('',#253,1.);
#253 = DIRECTION('',(1.,0.));
#254 = ( GEOMETRIC_REPRESENTATION_CONTEXT(2) 
PARAMETRIC_REPRESENTATION_CONTEXT() REPRESENTATION_CONTEXT('2D SPACE',''
  ) );
#255 = PCURVE('',#100,#256);
#256 = DEFINITIONAL_REPRESENTATION('',(#257),#261);
#257 = LINE('',#258,#259);
#258 = CARTESIAN_POINT('',(10.,0.));
#259 = VECTOR('',#260,1.);
#260 = DIRECTION('',(0.,1.));
#261 = ( GEOMETRIC_REPRESENTATION_CONTEXT(2) 
PARAMETRIC_REPRESENTATION_CONTEXT() REPRESENTATION_CONTEXT('2D SPACE',''
  ) );
#262 = FACE_BOUND('',#263,.T.);
#263 = EDGE_LOOP('',(#264));
#264 = ORIENTED_EDGE('',*,*,#265,.T.);
#265 = EDGE_CURVE('',#266,#266,#268,.T.);
#266 = VERTEX_POINT('',#267);
#267 = CARTESIAN_POINT('',(6.,-7.347880794884E-16,10.));
#268 = SURFACE_CURVE('',#269,(#447,#628),.PCURVE_S1.);
#269 = B_SPLINE_CURVE_WITH_KNOTS('',8,(#270,#271,#272,#273,#274,#275,
    #276,#277,#278,#279,#280,#281,#282,#283,#284,#285,#286,#287,#288,
    #289,#290,#291,#292,#293,#294,#295,#296,#297,#298,#299,#300,#301,
    #302,#303,#304,#305,#306,#307,#308,#309,#310,#311,#312,#313,#314,
    #315,#316,#317,#318,#319,#320,#321,#322,#323,#324,#325,#326,#327,
    #328,#329,#330,#331,#332,#333,#334,#335,#336,#337,#338,#339,#340,
    #341,#342,#343,#344,#345,#346,#347,#348,#349,#350,#351,#352,#353,
    #354,#355,#356,#357,#358,#359,#360,#361,#362,#363,#364,#365,#366,
    #367,#368,#369,#370,#371,#372,#373,#374,#375,#376,#377,#378,#379,
    #380,#381,#382,#383,#384,#385,#386,#387,#388,#389,#390,#391,#392,
    #393,#394,#395,#396,#397,#398,#399,#400,#401,#402,#403,#404,#405,
    #406,#407,#408,#409,#410,#411,#412,#413,#414,#415,#416,#417,#418,
    #419,#420,#421,#422,#423,#424,#425,#426,#427,#428,#429,#430,#431,
    #432,#433,#434,#435,#436,#437,#438,#439,#440,#441,#442,#443,#444,
    #445,#446),.UNSPECIFIED.,.T.,.F.,(9,7,7,7,7,7,7,7,7,7,7,7,7,7,7,7,7,
    7,7,7,7,7,7,7,7,9),(0.,3.099146560161E-02,5.14176299894E-02,
    8.347476586092E-02,0.115150469062,0.179805737912,0.248473171123,
    0.352213400555,0.358026124083,0.405607148115,0.45017614851,
    0.471341266016,0.487250301068,0.499692121561,0.516595411137,
    0.544159622261,0.586169999077,0.631635202037,0.639430190199,
    0.647225178361,0.751126754656,0.866620542197,0.898351949748,
    0.930061770591,0.962518327658,1.),.UNSPECIFIED.);
#270 = CARTESIAN_POINT('',(6.,1.7763568394E-15,10.));
#271 = CARTESIAN_POINT('',(6.000000021835,-0.107033464676,10.));
#272 = CARTESIAN_POINT('',(5.991271447419,-0.21452933257,10.));
#273 = CARTESIAN_POINT('',(5.973682491504,-0.321528241009,10.));
#274 = CARTESIAN_POINT('',(5.947467458827,-0.427237060771,10.));
#275 = CARTESIAN_POINT('',(5.913110083705,-0.531014529415,10.));
#276 = CARTESIAN_POINT('',(5.871248137036,-0.632356874876,10.));
#277 = CARTESIAN_POINT('',(5.822599300715,-0.730883429342,10.));
#278 = CARTESIAN_POINT('',(5.731862119825,-0.889225094018,10.));
#279 = CARTESIAN_POINT('',(5.693176330105,-0.950811303116,10.));
#280 = CARTESIAN_POINT('',(5.652046540776,-1.011027913445,10.));
#281 = CARTESIAN_POINT('',(5.608663229585,-1.069842598616,10.));
#282 = CARTESIAN_POINT('',(5.563207946558,-1.127241001003,10.));
#283 = CARTESIAN_POINT('',(5.515849509007,-1.183224079626,10.));
#284 = CARTESIAN_POINT('',(5.466740196544,-1.23780545804,10.));
#285 = CARTESIAN_POINT('',(5.336398179371,-1.374506991192,10.));
#286 = CARTESIAN_POINT('',(5.25282405139,-1.454585223565,10.));
#287 = CARTESIAN_POINT('',(5.165795340916,-1.531351197735,10.));
#288 = CARTESIAN_POINT('',(5.075754942553,-1.60492007945,10.));
#289 = CARTESIAN_POINT('',(4.983083149853,-1.675413638545,10.));
#290 = CARTESIAN_POINT('',(4.888097938436,-1.742959415676,10.));
#291 = CARTESIAN_POINT('',(4.7910552491,-1.807689889056,10.));
#292 = CARTESIAN_POINT('',(4.59441919455,-1.93105525336,10.));
#293 = CARTESIAN_POINT('',(4.49489510809,-1.989737862695,10.));
#294 = CARTESIAN_POINT('',(4.393779589513,-2.045911796032,10.));
#295 = CARTESIAN_POINT('',(4.291249342105,-2.099686880548,10.));
#296 = CARTESIAN_POINT('',(4.18745668149,-2.151162578827,10.));
#297 = CARTESIAN_POINT('',(4.082531022623,-2.200430123942,10.));
#298 = CARTESIAN_POINT('',(3.976580366792,-2.247574654522,10.));
#299 = CARTESIAN_POINT('',(3.651515913471,-2.384739284587,10.));
#300 = CARTESIAN_POINT('',(3.429514872557,-2.468260397088,10.));
#301 = CARTESIAN_POINT('',(3.204412178245,-2.543935902371,10.));
#302 = CARTESIAN_POINT('',(2.97679088751,-2.61228331083,10.));
#303 = CARTESIAN_POINT('',(2.74712128651,-2.673711238187,10.));
#304 = CARTESIAN_POINT('',(2.51577760318,-2.728561377447,10.));
#305 = CARTESIAN_POINT('',(2.283044747825,-2.777123632828,10.));
#306 = CARTESIAN_POINT('',(1.800669792903,-2.864762716929,10.));
#307 = CARTESIAN_POINT('',(1.550942253322,-2.903053866998,10.));
#308 = CARTESIAN_POINT('',(1.300208095258,-2.93477211538,10.));
#309 = CARTESIAN_POINT('',(1.048717646676,-2.960115966481,10.));
#310 = CARTESIAN_POINT('',(0.796699306722,-2.979227830381,10.));
#311 = CARTESIAN_POINT('',(0.544361953947,-2.99220539566,10.));
#312 = CARTESIAN_POINT('',(0.291896387236,-2.999104724279,10.));
#313 = CARTESIAN_POINT('',(-0.341870133931,-3.001189377129,10.));
#314 = CARTESIAN_POINT('',(-0.722919878056,-2.988593186631,10.));
#315 = CARTESIAN_POINT('',(-1.103213320524,-2.962200573649,10.));
#316 = CARTESIAN_POINT('',(-1.482111971563,-2.92181579102,10.));
#317 = CARTESIAN_POINT('',(-1.858782001648,-2.867019986263,10.));
#318 = CARTESIAN_POINT('',(-2.232193049866,-2.797200226584,10.));
#319 = CARTESIAN_POINT('',(-2.601085135122,-2.711477031458,10.));
#320 = CARTESIAN_POINT('',(-2.984182110606,-2.602652652231,10.));
#321 = CARTESIAN_POINT('',(-3.004486850864,-2.596824941353,10.));
#322 = CARTESIAN_POINT('',(-3.024773712275,-2.590942116635,10.));
#323 = CARTESIAN_POINT('',(-3.045044941169,-2.585003158495,10.));
#324 = CARTESIAN_POINT('',(-3.065301541026,-2.579007392263,10.));
#325 = CARTESIAN_POINT('',(-3.085543272467,-2.572954488184,10.));
#326 = CARTESIAN_POINT('',(-3.105768653261,-2.566844461414,10.));
#327 = CARTESIAN_POINT('',(-3.291558537433,-2.510143312181,10.));
#328 = CARTESIAN_POINT('',(-3.455989237296,-2.455761200347,10.));
#329 = CARTESIAN_POINT('',(-3.619110992864,-2.397351615688,10.));
#330 = CARTESIAN_POINT('',(-3.780711499304,-2.334708323353,10.));
#331 = CARTESIAN_POINT('',(-3.940522683049,-2.267601035957,10.));
#332 = CARTESIAN_POINT('',(-4.098216233193,-2.195767658969,10.));
#333 = CARTESIAN_POINT('',(-4.253394193235,-2.118896320013,10.));
#334 = CARTESIAN_POINT('',(-4.548121881696,-1.959507838344,10.));
#335 = CARTESIAN_POINT('',(-4.687931134053,-1.877712006629,10.));
#336 = CARTESIAN_POINT('',(-4.824691954339,-1.790861613027,10.));
#337 = CARTESIAN_POINT('',(-4.957890017876,-1.698592405034,10.));
#338 = CARTESIAN_POINT('',(-5.086817921557,-1.600540204692,10.));
#339 = CARTESIAN_POINT('',(-5.210570689821,-1.49633963032,10.));
#340 = CARTESIAN_POINT('',(-5.328025956259,-1.385605286782,10.));
#341 = CARTESIAN_POINT('',(-5.489942962945,-1.211996854423,10.));
#342 = CARTESIAN_POINT('',(-5.540322268838,-1.154549902539,10.));
#343 = CARTESIAN_POINT('',(-5.588794528856,-1.095518905677,10.));
#344 = CARTESIAN_POINT('',(-5.635180650108,-1.034879938455,10.));
#345 = CARTESIAN_POINT('',(-5.679279384459,-0.972624128933,10.));
#346 = CARTESIAN_POINT('',(-5.720872056509,-0.908760974443,10.));
#347 = CARTESIAN_POINT('',(-5.759727291574,-0.843321657424,10.));
#348 = CARTESIAN_POINT('',(-5.822574547722,-0.726031484253,10.));
#349 = CARTESIAN_POINT('',(-5.847860360318,-0.674844160762,10.));
#350 = CARTESIAN_POINT('',(-5.871361099686,-0.622828703648,10.));
#351 = CARTESIAN_POINT('',(-5.892971760513,-0.570023733207,10.));
#352 = CARTESIAN_POINT('',(-5.912588282469,-0.516479522493,10.));
#353 = CARTESIAN_POINT('',(-5.93011141873,-0.462259342628,10.));
#354 = CARTESIAN_POINT('',(-5.945450604494,-0.407440808128,10.));
#355 = CARTESIAN_POINT('',(-5.96875508605,-0.308850819668,10.));
#356 = CARTESIAN_POINT('',(-5.977599719207,-0.265272820967,10.));
#357 = CARTESIAN_POINT('',(-5.985024280244,-0.221428842558,10.));
#358 = CARTESIAN_POINT('',(-5.990997368604,-0.177367095422,10.));
#359 = CARTESIAN_POINT('',(-5.995494368434,-0.133138430645,10.));
#360 = CARTESIAN_POINT('',(-5.998498189121,-8.879638499724E-02,10.));
#361 = CARTESIAN_POINT('',(-6.000000005822,-4.439722649952E-02,10.));
#362 = CARTESIAN_POINT('',(-6.000000054292,6.031742794325E-02,10.));
#363 = CARTESIAN_POINT('',(-5.997227950745,0.120643055129,10.));
#364 = CARTESIAN_POINT('',(-5.99168281358,0.180823506108,10.));
#365 = CARTESIAN_POINT('',(-5.983395378184,0.240717931951,10.));
#366 = CARTESIAN_POINT('',(-5.972423719004,0.300197540525,10.));
#367 = CARTESIAN_POINT('',(-5.958848977446,0.35914512677,10.));
#368 = CARTESIAN_POINT('',(-5.942771089759,0.417454602983,10.));
#369 = CARTESIAN_POINT('',(-5.894191345626,0.568919519334,10.));
#370 = CARTESIAN_POINT('',(-5.857722840912,0.660867507283,10.));
#371 = CARTESIAN_POINT('',(-5.815383855749,0.750502573151,10.));
#372 = CARTESIAN_POINT('',(-5.767725184335,0.837584328629,10.));
#373 = CARTESIAN_POINT('',(-5.715305327345,0.921974661733,10.));
#374 = CARTESIAN_POINT('',(-5.658647394298,1.003615477655,10.));
#375 = CARTESIAN_POINT('',(-5.598211141049,1.082513435588,10.));
#376 = CARTESIAN_POINT('',(-5.437095232676,1.274895323701,10.));
#377 = CARTESIAN_POINT('',(-5.332025994975,1.384713051883,10.));
#378 = CARTESIAN_POINT('',(-5.220498752609,1.488486130103,10.));
#379 = CARTESIAN_POINT('',(-5.103621032667,1.586509267149,10.));
#380 = CARTESIAN_POINT('',(-4.98230058294,1.679086663588,10.));
#381 = CARTESIAN_POINT('',(-4.85725492758,1.766538219642,10.));
#382 = CARTESIAN_POINT('',(-4.729011461503,1.849195903931,10.));
#383 = CARTESIAN_POINT('',(-4.456002391102,2.012015141786,10.));
#384 = CARTESIAN_POINT('',(-4.310865944802,2.091342629011,10.));
#385 = CARTESIAN_POINT('',(-4.163003896105,2.165754254398,10.));
#386 = CARTESIAN_POINT('',(-4.01284065491,2.235557288747,10.));
#387 = CARTESIAN_POINT('',(-3.860725292135,2.301012316081,10.));
#388 = CARTESIAN_POINT('',(-3.706941553953,2.362350675614,10.));
#389 = CARTESIAN_POINT('',(-3.55171248768,2.41978179361,10.));
#390 = CARTESIAN_POINT('',(-3.368365667267,2.482698732198,10.));
#391 = CARTESIAN_POINT('',(-3.341505076354,2.491793825544,10.));
#392 = CARTESIAN_POINT('',(-3.314620515892,2.500776189586,10.));
#393 = CARTESIAN_POINT('',(-3.287714553256,2.509646345146,10.));
#394 = CARTESIAN_POINT('',(-3.260789713882,2.518404829476,10.));
#395 = CARTESIAN_POINT('',(-3.233848481267,2.527052196255,10.));
#396 = CARTESIAN_POINT('',(-3.206893296964,2.535589015594,10.));
#397 = CARTESIAN_POINT('',(-3.152989034308,2.552434449609,10.));
#398 = CARTESIAN_POINT('',(-3.12597932161,2.56076025787,10.));
#399 = CARTESIAN_POINT('',(-3.098963012127,2.568975961215,10.));
#400 = CARTESIAN_POINT('',(-3.071973950524,2.577073229556,10.));
#401 = CARTESIAN_POINT('',(-3.045014236498,2.585052740307,10.));
#402 = CARTESIAN_POINT('',(-3.018054224776,2.592924178389,10.));
#403 = CARTESIAN_POINT('',(-2.991032525118,2.60070623623,10.));
#404 = CARTESIAN_POINT('',(-2.601085135123,2.711477031459,10.));
#405 = CARTESIAN_POINT('',(-2.232193049868,2.797200226582,10.));
#406 = CARTESIAN_POINT('',(-1.858782001649,2.867019986264,10.));
#407 = CARTESIAN_POINT('',(-1.482111971564,2.921815791021,10.));
#408 = CARTESIAN_POINT('',(-1.103213320526,2.962200573647,10.));
#409 = CARTESIAN_POINT('',(-0.722919878056,2.988593186632,10.));
#410 = CARTESIAN_POINT('',(-0.341870133932,3.001189377128,10.));
#411 = CARTESIAN_POINT('',(0.463370254507,2.998540727088,10.));
#412 = CARTESIAN_POINT('',(0.887146986323,2.980031443695,10.));
#413 = CARTESIAN_POINT('',(1.310267592206,2.944399784279,10.));
#414 = CARTESIAN_POINT('',(1.731890879255,2.891191415044,10.));
#415 = CARTESIAN_POINT('',(2.150885085579,2.819682024537,10.));
#416 = CARTESIAN_POINT('',(2.565764924851,2.728662514026,10.));
#417 = CARTESIAN_POINT('',(2.974717273128,2.616572451875,10.));
#418 = CARTESIAN_POINT('',(3.485352307243,2.442848622321,10.));
#419 = CARTESIAN_POINT('',(3.594743368825,2.403591511461,10.));
#420 = CARTESIAN_POINT('',(3.70340814668,2.362459779351,10.));
#421 = CARTESIAN_POINT('',(3.811274449109,2.319389148939,10.));
#422 = CARTESIAN_POINT('',(3.918257663096,2.274309669493,10.));
#423 = CARTESIAN_POINT('',(4.024259890214,2.22714413666,10.));
#424 = CARTESIAN_POINT('',(4.129169082541,2.177806512531,10.));
#425 = CARTESIAN_POINT('',(4.33647590132,2.074629335919,10.));
#426 = CARTESIAN_POINT('',(4.438862387554,2.020799676836,10.));
#427 = CARTESIAN_POINT('',(4.53989745363,1.964610201682,10.));
#428 = CARTESIAN_POINT('',(4.639429851406,1.905957169307,10.));
#429 = CARTESIAN_POINT('',(4.737275350583,1.84473212788,10.));
#430 = CARTESIAN_POINT('',(4.833214821072,1.780819778596,10.));
#431 = CARTESIAN_POINT('',(4.926992315355,1.714095839382,10.));
#432 = CARTESIAN_POINT('',(5.111783855854,1.573113393853,10.));
#433 = CARTESIAN_POINT('',(5.202640307359,1.498744467183,10.));
#434 = CARTESIAN_POINT('',(5.290592575773,1.421156564928,10.));
#435 = CARTESIAN_POINT('',(5.375250260081,1.340210886991,10.));
#436 = CARTESIAN_POINT('',(5.456126761429,1.255796760645,10.));
#437 = CARTESIAN_POINT('',(5.532647559694,1.167840372504,10.));
#438 = CARTESIAN_POINT('',(5.604162493028,1.076316868643,10.));
#439 = CARTESIAN_POINT('',(5.745948154984,0.871499371996,10.));
#440 = CARTESIAN_POINT('',(5.814353833321,0.756971695466,10.));
#441 = CARTESIAN_POINT('',(5.873950478205,0.637906791537,10.));
#442 = CARTESIAN_POINT('',(5.923441266867,0.514745215781,10.));
#443 = CARTESIAN_POINT('',(5.961563830949,0.388185452484,10.));
#444 = CARTESIAN_POINT('',(5.987272522639,0.259231014253,10.));
#445 = CARTESIAN_POINT('',(6.000000266926,0.12924326981,10.));
#446 = CARTESIAN_POINT('',(6.,0.,10.));
#447 = PCURVE('',#126,#448);
#448 = DEFINITIONAL_REPRESENTATION('',(#449),#627);
#449 = B_SPLINE_CURVE_WITH_KNOTS('',8,(#450,#451,#452,#453,#454,#455,
    #456,#457,#458,#459,#460,#461,#462,#463,#464,#465,#466,#467,#468,
    #469,#470,#471,#472,#473,#474,#475,#476,#477,#478,#479,#480,#481,
    #482,#483,#484,#485,#486,#487,#488,#489,#490,#491,#492,#493,#494,
    #495,#496,#497,#498,#499,#500,#501,#502,#503,#504,#505,#506,#507,
    #508,#509,#510,#511,#512,#513,#514,#515,#516,#517,#518,#519,#520,
    #521,#522,#523,#524,#525,#526,#527,#528,#529,#530,#531,#532,#533,
    #534,#535,#536,#537,#538,#539,#540,#541,#542,#543,#544,#545,#546,
    #547,#548,#549,#550,#551,#552,#553,#554,#555,#556,#557,#558,#559,
    #560,#561,#562,#563,#564,#565,#566,#567,#568,#569,#570,#571,#572,
    #573,#574,#575,#576,#577,#578,#579,#580,#581,#582,#583,#584,#585,
    #586,#587,#588,#589,#590,#591,#592,#593,#594,#595,#596,#597,#598,
    #599,#600,#601,#602,#603,#604,#605,#606,#607,#608,#609,#610,#611,
    #612,#613,#614,#615,#616,#617,#618,#619,#620,#621,#622,#623,#624,
    #625,#626),.UNSPECIFIED.,.F.,.F.,(9,7,7,7,7,7,7,7,7,7,7,7,7,7,7,7,7,
    7,7,7,7,7,7,7,7,9),(0.,3.099146560161E-02,5.14176299894E-02,
    8.347476586092E-02,0.115150469062,0.179805737912,0.248473171123,
    0.352213400555,0.358026124083,0.405607148115,0.45017614851,
    0.471341266016,0.487250301068,0.499692121561,0.516595411137,
    0.544159622261,0.586169999077,0.631635202037,0.639430190199,
    0.647225178361,0.751126754656,0.866620542197,0.898351949748,
    0.930061770591,0.962518327658,1.),.UNSPECIFIED.);
#450 = CARTESIAN_POINT('',(16.,10.));
#451 = CARTESIAN_POINT('',(16.000000021835,9.892966535324));
#452 = CARTESIAN_POINT('',(15.991271447419,9.78547066743));
#453 = CARTESIAN_POINT('',(15.973682491504,9.678471758991));
#454 = CARTESIAN_POINT('',(15.947467458827,9.572762939229));
#455 = CARTESIAN_POINT('',(15.913110083705,9.468985470585));
#456 = CARTESIAN_POINT('',(15.871248137036,9.367643125124));
#457 = CARTESIAN_POINT('',(15.822599300715,9.269116570658));
#458 = CARTESIAN_POINT('',(15.731862119825,9.110774905982));
#459 = CARTESIAN_POINT('',(15.693176330105,9.049188696884));
#460 = CARTESIAN_POINT('',(15.652046540776,8.988972086555));
#461 = CARTESIAN_POINT('',(15.608663229585,8.930157401384));
#462 = CARTESIAN_POINT('',(15.563207946558,8.872758998997));
#463 = CARTESIAN_POINT('',(15.515849509007,8.816775920374));
#464 = CARTESIAN_POINT('',(15.466740196544,8.76219454196));
#465 = CARTESIAN_POINT('',(15.336398179371,8.625493008808));
#466 = CARTESIAN_POINT('',(15.25282405139,8.545414776435));
#467 = CARTESIAN_POINT('',(15.165795340916,8.468648802265));
#468 = CARTESIAN_POINT('',(15.075754942553,8.39507992055));
#469 = CARTESIAN_POINT('',(14.983083149853,8.324586361455));
#470 = CARTESIAN_POINT('',(14.888097938436,8.257040584324));
#471 = CARTESIAN_POINT('',(14.7910552491,8.192310110944));
#472 = CARTESIAN_POINT('',(14.59441919455,8.06894474664));
#473 = CARTESIAN_POINT('',(14.49489510809,8.010262137305));
#474 = CARTESIAN_POINT('',(14.393779589513,7.954088203968));
#475 = CARTESIAN_POINT('',(14.291249342105,7.900313119452));
#476 = CARTESIAN_POINT('',(14.18745668149,7.848837421173));
#477 = CARTESIAN_POINT('',(14.082531022623,7.799569876058));
#478 = CARTESIAN_POINT('',(13.976580366792,7.752425345478));
#479 = CARTESIAN_POINT('',(13.651515913471,7.615260715413));
#480 = CARTESIAN_POINT('',(13.429514872557,7.531739602912));
#481 = CARTESIAN_POINT('',(13.204412178245,7.456064097629));
#482 = CARTESIAN_POINT('',(12.97679088751,7.38771668917));
#483 = CARTESIAN_POINT('',(12.74712128651,7.326288761813));
#484 = CARTESIAN_POINT('',(12.51577760318,7.271438622553));
#485 = CARTESIAN_POINT('',(12.283044747825,7.222876367172));
#486 = CARTESIAN_POINT('',(11.800669792903,7.135237283071));
#487 = CARTESIAN_POINT('',(11.550942253322,7.096946133002));
#488 = CARTESIAN_POINT('',(11.300208095258,7.06522788462));
#489 = CARTESIAN_POINT('',(11.048717646676,7.039884033519));
#490 = CARTESIAN_POINT('',(10.796699306722,7.020772169619));
#491 = CARTESIAN_POINT('',(10.544361953947,7.00779460434));
#492 = CARTESIAN_POINT('',(10.291896387236,7.000895275721));
#493 = CARTESIAN_POINT('',(9.658129866069,6.998810622871));
#494 = CARTESIAN_POINT('',(9.277080121944,7.011406813369));
#495 = CARTESIAN_POINT('',(8.896786679476,7.037799426351));
#496 = CARTESIAN_POINT('',(8.517888028437,7.07818420898));
#497 = CARTESIAN_POINT('',(8.141217998352,7.132980013737));
#498 = CARTESIAN_POINT('',(7.767806950134,7.202799773416));
#499 = CARTESIAN_POINT('',(7.398914864878,7.288522968542));
#500 = CARTESIAN_POINT('',(7.015817889394,7.397347347769));
#501 = CARTESIAN_POINT('',(6.995513149136,7.403175058647));
#502 = CARTESIAN_POINT('',(6.975226287725,7.409057883365));
#503 = CARTESIAN_POINT('',(6.954955058831,7.414996841505));
#504 = CARTESIAN_POINT('',(6.934698458974,7.420992607737));
#505 = CARTESIAN_POINT('',(6.914456727533,7.427045511816));
#506 = CARTESIAN_POINT('',(6.894231346739,7.433155538586));
#507 = CARTESIAN_POINT('',(6.708441462567,7.489856687819));
#508 = CARTESIAN_POINT('',(6.544010762704,7.544238799653));
#509 = CARTESIAN_POINT('',(6.380889007136,7.602648384312));
#510 = CARTESIAN_POINT('',(6.219288500696,7.665291676647));
#511 = CARTESIAN_POINT('',(6.059477316951,7.732398964043));
#512 = CARTESIAN_POINT('',(5.901783766807,7.804232341031));
#513 = CARTESIAN_POINT('',(5.746605806765,7.881103679987));
#514 = CARTESIAN_POINT('',(5.451878118304,8.040492161656));
#515 = CARTESIAN_POINT('',(5.312068865947,8.122287993371));
#516 = CARTESIAN_POINT('',(5.175308045661,8.209138386973));
#517 = CARTESIAN_POINT('',(5.042109982124,8.301407594966));
#518 = CARTESIAN_POINT('',(4.913182078443,8.399459795308));
#519 = CARTESIAN_POINT('',(4.789429310179,8.50366036968));
#520 = CARTESIAN_POINT('',(4.671974043741,8.614394713218));
#521 = CARTESIAN_POINT('',(4.510057037055,8.788003145577));
#522 = CARTESIAN_POINT('',(4.459677731162,8.845450097461));
#523 = CARTESIAN_POINT('',(4.411205471144,8.904481094323));
#524 = CARTESIAN_POINT('',(4.364819349892,8.965120061545));
#525 = CARTESIAN_POINT('',(4.320720615541,9.027375871067));
#526 = CARTESIAN_POINT('',(4.279127943491,9.091239025557));
#527 = CARTESIAN_POINT('',(4.240272708426,9.156678342576));
#528 = CARTESIAN_POINT('',(4.177425452278,9.273968515747));
#529 = CARTESIAN_POINT('',(4.152139639682,9.325155839238));
#530 = CARTESIAN_POINT('',(4.128638900314,9.377171296352));
#531 = CARTESIAN_POINT('',(4.107028239487,9.429976266793));
#532 = CARTESIAN_POINT('',(4.087411717531,9.483520477507));
#533 = CARTESIAN_POINT('',(4.06988858127,9.537740657372));
#534 = CARTESIAN_POINT('',(4.054549395506,9.592559191872));
#535 = CARTESIAN_POINT('',(4.03124491395,9.691149180332));
#536 = CARTESIAN_POINT('',(4.022400280793,9.734727179033));
#537 = CARTESIAN_POINT('',(4.014975719756,9.778571157442));
#538 = CARTESIAN_POINT('',(4.009002631396,9.822632904578));
#539 = CARTESIAN_POINT('',(4.004505631566,9.866861569355));
#540 = CARTESIAN_POINT('',(4.001501810879,9.911203615003));
#541 = CARTESIAN_POINT('',(3.999999994178,9.9556027735));
#542 = CARTESIAN_POINT('',(3.999999945708,10.060317427943));
#543 = CARTESIAN_POINT('',(4.002772049255,10.120643055129));
#544 = CARTESIAN_POINT('',(4.00831718642,10.180823506108));
#545 = CARTESIAN_POINT('',(4.016604621816,10.240717931951));
#546 = CARTESIAN_POINT('',(4.027576280996,10.300197540525));
#547 = CARTESIAN_POINT('',(4.041151022554,10.35914512677));
#548 = CARTESIAN_POINT('',(4.057228910241,10.417454602983));
#549 = CARTESIAN_POINT('',(4.105808654374,10.568919519334));
#550 = CARTESIAN_POINT('',(4.142277159088,10.660867507283));
#551 = CARTESIAN_POINT('',(4.184616144251,10.750502573151));
#552 = CARTESIAN_POINT('',(4.232274815665,10.837584328629));
#553 = CARTESIAN_POINT('',(4.284694672655,10.921974661733));
#554 = CARTESIAN_POINT('',(4.341352605702,11.003615477655));
#555 = CARTESIAN_POINT('',(4.401788858951,11.082513435588));
#556 = CARTESIAN_POINT('',(4.562904767324,11.274895323701));
#557 = CARTESIAN_POINT('',(4.667974005025,11.384713051883));
#558 = CARTESIAN_POINT('',(4.779501247391,11.488486130103));
#559 = CARTESIAN_POINT('',(4.896378967333,11.586509267149));
#560 = CARTESIAN_POINT('',(5.01769941706,11.679086663588));
#561 = CARTESIAN_POINT('',(5.14274507242,11.766538219642));
#562 = CARTESIAN_POINT('',(5.270988538497,11.849195903931));
#563 = CARTESIAN_POINT('',(5.543997608898,12.012015141786));
#564 = CARTESIAN_POINT('',(5.689134055198,12.091342629011));
#565 = CARTESIAN_POINT('',(5.836996103895,12.165754254398));
#566 = CARTESIAN_POINT('',(5.98715934509,12.235557288747));
#567 = CARTESIAN_POINT('',(6.139274707865,12.301012316081));
#568 = CARTESIAN_POINT('',(6.293058446047,12.362350675614));
#569 = CARTESIAN_POINT('',(6.44828751232,12.41978179361));
#570 = CARTESIAN_POINT('',(6.631634332733,12.482698732198));
#571 = CARTESIAN_POINT('',(6.658494923646,12.491793825544));
#572 = CARTESIAN_POINT('',(6.685379484108,12.500776189586));
#573 = CARTESIAN_POINT('',(6.712285446744,12.509646345146));
#574 = CARTESIAN_POINT('',(6.739210286118,12.518404829476));
#575 = CARTESIAN_POINT('',(6.766151518733,12.527052196255));
#576 = CARTESIAN_POINT('',(6.793106703036,12.535589015594));
#577 = CARTESIAN_POINT('',(6.847010965692,12.552434449609));
#578 = CARTESIAN_POINT('',(6.87402067839,12.56076025787));
#579 = CARTESIAN_POINT('',(6.901036987873,12.568975961215));
#580 = CARTESIAN_POINT('',(6.928026049476,12.577073229556));
#581 = CARTESIAN_POINT('',(6.954985763502,12.585052740307));
#582 = CARTESIAN_POINT('',(6.981945775224,12.592924178389));
#583 = CARTESIAN_POINT('',(7.008967474882,12.60070623623));
#584 = CARTESIAN_POINT('',(7.398914864877,12.711477031459));
#585 = CARTESIAN_POINT('',(7.767806950132,12.797200226582));
#586 = CARTESIAN_POINT('',(8.141217998351,12.867019986264));
#587 = CARTESIAN_POINT('',(8.517888028436,12.921815791021));
#588 = CARTESIAN_POINT('',(8.896786679474,12.962200573647));
#589 = CARTESIAN_POINT('',(9.277080121944,12.988593186632));
#590 = CARTESIAN_POINT('',(9.658129866068,13.001189377128));
#591 = CARTESIAN_POINT('',(10.463370254507,12.998540727088));
#592 = CARTESIAN_POINT('',(10.887146986323,12.980031443695));
#593 = CARTESIAN_POINT('',(11.310267592206,12.944399784279));
#594 = CARTESIAN_POINT('',(11.731890879255,12.891191415044));
#595 = CARTESIAN_POINT('',(12.150885085579,12.819682024537));
#596 = CARTESIAN_POINT('',(12.565764924851,12.728662514026));
#597 = CARTESIAN_POINT('',(12.974717273128,12.616572451875));
#598 = CARTESIAN_POINT('',(13.485352307243,12.442848622321));
#599 = CARTESIAN_POINT('',(13.594743368825,12.403591511461));
#600 = CARTESIAN_POINT('',(13.70340814668,12.362459779351));
#601 = CARTESIAN_POINT('',(13.811274449109,12.319389148939));
#602 = CARTESIAN_POINT('',(13.918257663096,12.274309669493));
#603 = CARTESIAN_POINT('',(14.024259890214,12.22714413666));
#604 = CARTESIAN_POINT('',(14.129169082541,12.177806512531));
#605 = CARTESIAN_POINT('',(14.33647590132,12.074629335919));
#606 = CARTESIAN_POINT('',(14.438862387554,12.020799676836));
#607 = CARTESIAN_POINT('',(14.53989745363,11.964610201682));
#608 = CARTESIAN_POINT('',(14.639429851406,11.905957169307));
#609 = CARTESIAN_POINT('',(14.737275350583,11.84473212788));
#610 = CARTESIAN_POINT('',(14.833214821072,11.780819778596));
#611 = CARTESIAN_POINT('',(14.926992315355,11.714095839382));
#612 = CARTESIAN_POINT('',(15.111783855854,11.573113393853));
#613 = CARTESIAN_POINT('',(15.202640307359,11.498744467183));
#614 = CARTESIAN_POINT('',(15.290592575773,11.421156564928));
#615 = CARTESIAN_POINT('',(15.375250260081,11.340210886991));
#616 = CARTESIAN_POINT('',(15.456126761429,11.255796760645));
#617 = CARTESIAN_POINT('',(15.532647559694,11.167840372504));
#618 = CARTESIAN_POINT('',(15.604162493028,11.076316868643));
#619 = CARTESIAN_POINT('',(15.745948154984,10.871499371996));
#620 = CARTESIAN_POINT('',(15.814353833321,10.756971695466));
#621 = CARTESIAN_POINT('',(15.873950478205,10.637906791537));
#622 = CARTESIAN_POINT('',(15.923441266867,10.514745215781));
#623 = CARTESIAN_POINT('',(15.961563830949,10.388185452484));
#624 = CARTESIAN_POINT('',(15.987272522639,10.259231014253));
#625 = CARTESIAN_POINT('',(16.000000266926,10.12924326981));
#626 = CARTESIAN_POINT('',(16.,10.));
#627 = ( GEOMETRIC_REPRESENTATION_CONTEXT(2) 
PARAMETRIC_REPRESENTATION_CONTEXT() REPRESENTATION_CONTEXT('2D SPACE',''
  ) );
#628 = PCURVE('',#629,#644);
#629 = ( BOUNDED_SURFACE() B_SPLINE_SURFACE(2,1,(
    (#630,#631)
    ,(#632,#633)
    ,(#634,#635)
    ,(#636,#637)
    ,(#638,#639)
    ,(#640,#641)
,(#642,#643
    )),.UNSPECIFIED.,.T.,.F.,.F.) B_SPLINE_SURFACE_WITH_KNOTS((1,2,2,2,2
    ,1),(2,2),(-2.094395102393,0.,2.094395102393,4.188790204786,
    6.28318530718,8.377580409573),(0.,12.),.UNSPECIFIED.) 
GEOMETRIC_REPRESENTATION_ITEM() RATIONAL_B_SPLINE_SURFACE((
    (1.,1.)
    ,(0.5,0.5)
    ,(1.,1.)
    ,(0.5,0.5)
    ,(1.,1.)
    ,(0.5,0.5)
,(1.,1.))) REPRESENTATION_ITEM('') SURFACE() );
#630 = CARTESIAN_POINT('',(6.,0.,-1.));
#631 = CARTESIAN_POINT('',(6.,0.,11.));
#632 = CARTESIAN_POINT('',(6.,5.196152422707,-1.));
#633 = CARTESIAN_POINT('',(6.,5.196152422707,11.));
#634 = CARTESIAN_POINT('',(-3.,2.598076211353,-1.));
#635 = CARTESIAN_POINT('',(-3.,2.598076211353,11.));
#636 = CARTESIAN_POINT('',(-12.,7.347880794884E-16,-1.));
#637 = CARTESIAN_POINT('',(-12.,7.347880794884E-16,11.));
#638 = CARTESIAN_POINT('',(-3.,-2.598076211353,-1.));
#639 = CARTESIAN_POINT('',(-3.,-2.598076211353,11.));
#640 = CARTESIAN_POINT('',(6.,-5.196152422707,-1.));
#641 = CARTESIAN_POINT('',(6.,-5.196152422707,11.));
#642 = CARTESIAN_POINT('',(6.,0.,-1.));
#643 = CARTESIAN_POINT('',(6.,0.,11.));
#644 = DEFINITIONAL_REPRESENTATION('',(#645),#823);
#645 = B_SPLINE_CURVE_WITH_KNOTS('',8,(#646,#647,#648,#649,#650,#651,
    #652,#653,#654,#655,#656,#657,#658,#659,#660,#661,#662,#663,#664,
    #665,#666,#667,#668,#669,#670,#671,#672,#673,#674,#675,#676,#677,
    #678,#679,#680,#681,#682,#683,#684,#685,#686,#687,#688,#689,#690,
    #691,#692,#693,#694,#695,#696,#697,#698,#699,#700,#701,#702,#703,
    #704,#705,#706,#707,#708,#709,#710,#711,#712,#713,#714,#715,#716,
    #717,#718,#719,#720,#721,#722,#723,#724,#725,#726,#727,#728,#729,
    #730,#731,#732,#733,#734,#735,#736,#737,#738,#739,#740,#741,#742,
    #743,#744,#745,#746,#747,#748,#749,#750,#751,#752,#753,#754,#755,
    #756,#757,#758,#759,#760,#761,#762,#763,#764,#765,#766,#767,#768,
    #769,#770,#771,#772,#773,#774,#775,#776,#777,#778,#779,#780,#781,
    #782,#783,#784,#785,#786,#787,#788,#789,#790,#791,#792,#793,#794,
    #795,#796,#797,#798,#799,#800,#801,#802,#803,#804,#805,#806,#807,
    #808,#809,#810,#811,#812,#813,#814,#815,#816,#817,#818,#819,#820,
    #821,#822),.UNSPECIFIED.,.F.,.F.,(9,7,7,7,7,7,7,7,7,7,7,7,7,7,7,7,7,
    7,7,7,7,7,7,7,7,9),(0.,3.099146560161E-02,5.14176299894E-02,
    8.347476586092E-02,0.115150469062,0.179805737912,0.248473171123,
    0.352213400555,0.358026124083,0.405607148115,0.45017614851,
    0.471341266016,0.487250301068,0.499692121561,0.516595411137,
    0.544159622261,0.586169999077,0.631635202037,0.639430190199,
    0.647225178361,0.751126754656,0.866620542197,0.898351949748,
    0.930061770591,0.962518327658,1.),.UNSPECIFIED.);
#646 = CARTESIAN_POINT('',(6.28318530718,11.));
#647 = CARTESIAN_POINT('',(6.240043615681,11.));
#648 = CARTESIAN_POINT('',(6.19773158581,11.));
#649 = CARTESIAN_POINT('',(6.156482557776,11.));
#650 = CARTESIAN_POINT('',(6.116428329944,11.));
#651 = CARTESIAN_POINT('',(6.077636973979,11.));
#652 = CARTESIAN_POINT('',(6.040138756075,11.));
#653 = CARTESIAN_POINT('',(6.003940164264,11.));
#654 = CARTESIAN_POINT('',(5.94601449362,11.));
#655 = CARTESIAN_POINT('',(5.923552157123,11.));
#656 = CARTESIAN_POINT('',(5.901625857507,11.));
#657 = CARTESIAN_POINT('',(5.880219194178,11.));
#658 = CARTESIAN_POINT('',(5.859313113067,11.));
#659 = CARTESIAN_POINT('',(5.838886478932,11.));
#660 = CARTESIAN_POINT('',(5.818916647651,11.));
#661 = CARTESIAN_POINT('',(5.768718984337,11.));
#662 = CARTESIAN_POINT('',(5.739134008359,11.));
#663 = CARTESIAN_POINT('',(5.710528313507,11.));
#664 = CARTESIAN_POINT('',(5.682816861171,11.));
#665 = CARTESIAN_POINT('',(5.655923590885,11.));
#666 = CARTESIAN_POINT('',(5.62977863999,11.));
#667 = CARTESIAN_POINT('',(5.604315563302,11.));
#668 = CARTESIAN_POINT('',(5.554917185054,11.));
#669 = CARTESIAN_POINT('',(5.530973721449,11.));
#670 = CARTESIAN_POINT('',(5.50757941967,11.));
#671 = CARTESIAN_POINT('',(5.484683510112,11.));
#672 = CARTESIAN_POINT('',(5.462241566087,11.));
#673 = CARTESIAN_POINT('',(5.440213874051,11.));
#674 = CARTESIAN_POINT('',(5.418563803835,11.));
#675 = CARTESIAN_POINT('',(5.353763846209,11.));
#676 = CARTESIAN_POINT('',(5.311714293959,11.));
#677 = CARTESIAN_POINT('',(5.270809342112,11.));
#678 = CARTESIAN_POINT('',(5.230826757684,11.));
#679 = CARTESIAN_POINT('',(5.191587906138,11.));
#680 = CARTESIAN_POINT('',(5.152935819532,11.));
#681 = CARTESIAN_POINT('',(5.114723681374,11.));
#682 = CARTESIAN_POINT('',(5.036551283642,11.));
#683 = CARTESIAN_POINT('',(4.996639547587,11.));
#684 = CARTESIAN_POINT('',(4.956918183633,11.));
#685 = CARTESIAN_POINT('',(4.917245314427,11.));
#686 = CARTESIAN_POINT('',(4.877488440943,11.));
#687 = CARTESIAN_POINT('',(4.837516522234,11.));
#688 = CARTESIAN_POINT('',(4.797193215652,11.));
#689 = CARTESIAN_POINT('',(4.694698996687,11.));
#690 = CARTESIAN_POINT('',(4.631920977845,11.));
#691 = CARTESIAN_POINT('',(4.567501824918,11.));
#692 = CARTESIAN_POINT('',(4.500902892647,11.));
#693 = CARTESIAN_POINT('',(4.431486034229,11.));
#694 = CARTESIAN_POINT('',(4.358490289535,11.));
#695 = CARTESIAN_POINT('',(4.280918118614,11.));
#696 = CARTESIAN_POINT('',(4.192475126078,11.));
#697 = CARTESIAN_POINT('',(4.187756166519,11.));
#698 = CARTESIAN_POINT('',(4.183028437918,11.));
#699 = CARTESIAN_POINT('',(4.178303711887,11.));
#700 = CARTESIAN_POINT('',(4.173588000259,11.));
#701 = CARTESIAN_POINT('',(4.168881555082,11.));
#702 = CARTESIAN_POINT('',(4.164178868619,11.));
#703 = CARTESIAN_POINT('',(4.120912579461,11.));
#704 = CARTESIAN_POINT('',(4.082554605913,11.));
#705 = CARTESIAN_POINT('',(4.0443068336,11.));
#706 = CARTESIAN_POINT('',(4.006083410732,11.));
#707 = CARTESIAN_POINT('',(3.96779836764,11.));
#708 = CARTESIAN_POINT('',(3.92936080409,11.));
#709 = CARTESIAN_POINT('',(3.890667449104,11.));
#710 = CARTESIAN_POINT('',(3.814991294798,11.));
#711 = CARTESIAN_POINT('',(3.778082008777,11.));
#712 = CARTESIAN_POINT('',(3.740743217838,11.));
#713 = CARTESIAN_POINT('',(3.702863803766,11.));
#714 = CARTESIAN_POINT('',(3.664339259484,11.));
#715 = CARTESIAN_POINT('',(3.625062441019,11.));
#716 = CARTESIAN_POINT('',(3.584908859513,11.));
#717 = CARTESIAN_POINT('',(3.524154915697,11.));
#718 = CARTESIAN_POINT('',(3.504367684077,11.));
#719 = CARTESIAN_POINT('',(3.484341069271,11.));
#720 = CARTESIAN_POINT('',(3.464064186166,11.));
#721 = CARTESIAN_POINT('',(3.443529320555,11.));
#722 = CARTESIAN_POINT('',(3.422732236046,11.));
#723 = CARTESIAN_POINT('',(3.401672480965,11.));
#724 = CARTESIAN_POINT('',(3.364329153518,11.));
#725 = CARTESIAN_POINT('',(3.348158985155,11.));
#726 = CARTESIAN_POINT('',(3.331846249183,11.));
#727 = CARTESIAN_POINT('',(3.31539591847,11.));
#728 = CARTESIAN_POINT('',(3.298815267476,11.));
#729 = CARTESIAN_POINT('',(3.282114259995,11.));
#730 = CARTESIAN_POINT('',(3.265305936886,11.));
#731 = CARTESIAN_POINT('',(3.235190667227,11.));
#732 = CARTESIAN_POINT('',(3.221918185153,11.));
#733 = CARTESIAN_POINT('',(3.208597627808,11.));
#734 = CARTESIAN_POINT('',(3.195237588387,11.));
#735 = CARTESIAN_POINT('',(3.18184710584,11.));
#736 = CARTESIAN_POINT('',(3.168435787651,11.));
#737 = CARTESIAN_POINT('',(3.15501393261,11.));
#738 = CARTESIAN_POINT('',(3.123358684864,11.));
#739 = CARTESIAN_POINT('',(3.105122299835,11.));
#740 = CARTESIAN_POINT('',(3.08691287777,11.));
#741 = CARTESIAN_POINT('',(3.068756211176,11.));
#742 = CARTESIAN_POINT('',(3.05067507684,11.));
#743 = CARTESIAN_POINT('',(3.032689806883,11.));
#744 = CARTESIAN_POINT('',(3.014818859804,11.));
#745 = CARTESIAN_POINT('',(2.968151622958,11.));
#746 = CARTESIAN_POINT('',(2.939570425203,11.));
#747 = CARTESIAN_POINT('',(2.911396392419,11.));
#748 = CARTESIAN_POINT('',(2.883662094051,11.));
#749 = CARTESIAN_POINT('',(2.856380475324,11.));
#750 = CARTESIAN_POINT('',(2.829549854505,11.));
#751 = CARTESIAN_POINT('',(2.803155516926,11.));
#752 = CARTESIAN_POINT('',(2.737560411398,11.));
#753 = CARTESIAN_POINT('',(2.698939114363,11.));
#754 = CARTESIAN_POINT('',(2.661177831313,11.));
#755 = CARTESIAN_POINT('',(2.624174553952,11.));
#756 = CARTESIAN_POINT('',(2.587837545371,11.));
#757 = CARTESIAN_POINT('',(2.552074627066,11.));
#758 = CARTESIAN_POINT('',(2.516785656663,11.));
#759 = CARTESIAN_POINT('',(2.444058390835,11.));
#760 = CARTESIAN_POINT('',(2.406713285225,11.));
#761 = CARTESIAN_POINT('',(2.369702512903,11.));
#762 = CARTESIAN_POINT('',(2.332928371908,11.));
#763 = CARTESIAN_POINT('',(2.29630574577,11.));
#764 = CARTESIAN_POINT('',(2.259754723466,11.));
#765 = CARTESIAN_POINT('',(2.223195918469,11.));
#766 = CARTESIAN_POINT('',(2.180265301591,11.));
#767 = CARTESIAN_POINT('',(2.173982116284,11.));
#768 = CARTESIAN_POINT('',(2.167698930977,11.));
#769 = CARTESIAN_POINT('',(2.16141574567,11.));
#770 = CARTESIAN_POINT('',(2.155132560363,11.));
#771 = CARTESIAN_POINT('',(2.148849375055,11.));
#772 = CARTESIAN_POINT('',(2.142566189748,11.));
#773 = CARTESIAN_POINT('',(2.129999819134,11.));
#774 = CARTESIAN_POINT('',(2.123716633827,11.));
#775 = CARTESIAN_POINT('',(2.11743344852,11.));
#776 = CARTESIAN_POINT('',(2.111150263212,11.));
#777 = CARTESIAN_POINT('',(2.104867077905,11.));
#778 = CARTESIAN_POINT('',(2.098583892598,11.));
#779 = CARTESIAN_POINT('',(2.092300707291,11.));
#780 = CARTESIAN_POINT('',(2.002267188565,11.));
#781 = CARTESIAN_POINT('',(1.924695017647,11.));
#782 = CARTESIAN_POINT('',(1.851699272948,11.));
#783 = CARTESIAN_POINT('',(1.782282414533,11.));
#784 = CARTESIAN_POINT('',(1.715683482264,11.));
#785 = CARTESIAN_POINT('',(1.651264329333,11.));
#786 = CARTESIAN_POINT('',(1.588486310494,11.));
#787 = CARTESIAN_POINT('',(1.45826102443,11.));
#788 = CARTESIAN_POINT('',(1.391153683422,11.));
#789 = CARTESIAN_POINT('',(1.324746590592,11.));
#790 = CARTESIAN_POINT('',(1.258414965234,11.));
#791 = CARTESIAN_POINT('',(1.191569075876,11.));
#792 = CARTESIAN_POINT('',(1.123523961015,11.));
#793 = CARTESIAN_POINT('',(1.053511002217,11.));
#794 = CARTESIAN_POINT('',(0.960028689709,11.));
#795 = CARTESIAN_POINT('',(0.939636013381,11.));
#796 = CARTESIAN_POINT('',(0.918972559757,11.));
#797 = CARTESIAN_POINT('',(0.898010794783,11.));
#798 = CARTESIAN_POINT('',(0.876720960337,11.));
#799 = CARTESIAN_POINT('',(0.855070065022,11.));
#800 = CARTESIAN_POINT('',(0.833020874967,11.));
#801 = CARTESIAN_POINT('',(0.788056234092,11.));
#802 = CARTESIAN_POINT('',(0.765144412633,11.));
#803 = CARTESIAN_POINT('',(0.741750496342,11.));
#804 = CARTESIAN_POINT('',(0.71782812717,11.));
#805 = CARTESIAN_POINT('',(0.693327295324,11.));
#806 = CARTESIAN_POINT('',(0.66819210167,11.));
#807 = CARTESIAN_POINT('',(0.642358520134,11.));
#808 = CARTESIAN_POINT('',(0.588519245514,11.));
#809 = CARTESIAN_POINT('',(0.560488054917,11.));
#810 = CARTESIAN_POINT('',(0.531571639649,11.));
#811 = CARTESIAN_POINT('',(0.50168511721,11.));
#812 = CARTESIAN_POINT('',(0.470743272257,11.));
#813 = CARTESIAN_POINT('',(0.438659216747,11.));
#814 = CARTESIAN_POINT('',(0.405344109205,11.));
#815 = CARTESIAN_POINT('',(0.330709180319,11.));
#816 = CARTESIAN_POINT('',(0.288929690142,11.));
#817 = CARTESIAN_POINT('',(0.245285149965,11.));
#818 = CARTESIAN_POINT('',(0.199737771715,11.));
#819 = CARTESIAN_POINT('',(0.152288222823,11.));
#820 = CARTESIAN_POINT('',(0.103005392563,11.));
#821 = CARTESIAN_POINT('',(5.209399377812E-02,11.));
#822 = CARTESIAN_POINT('',(0.,11.));
#823 = ( GEOMETRIC_REPRESENTATION_CONTEXT(2) 
PARAMETRIC_REPRESENTATION_CONTEXT() REPRESENTATION_CONTEXT('2D SPACE',''
  ) );
#824 = ADVANCED_FACE('',(#825),#100,.T.);
#825 = FACE_BOUND('',#826,.T.);
#826 = EDGE_LOOP('',(#827,#850,#851,#852));
#827 = ORIENTED_EDGE('',*,*,#828,.F.);
#828 = EDGE_CURVE('',#57,#829,#831,.T.);
#829 = VERTEX_POINT('',#830);
#830 = CARTESIAN_POINT('',(10.,10.,0.));
#831 = SURFACE_CURVE('',#832,(#836,#843),.PCURVE_S1.);
#832 = LINE('',#833,#834);
#833 = CARTESIAN_POINT('',(-10.,10.,0.));
#834 = VECTOR('',#835,1.);
#835 = DIRECTION('',(1.,0.,-0.));
#836 = PCURVE('',#100,#837);
#837 = DEFINITIONAL_REPRESENTATION('',(#838),#842);
#838 = LINE('',#839,#840);
#839 = CARTESIAN_POINT('',(0.,0.));
#840 = VECTOR('',#841,1.);
#841 = DIRECTION('',(0.,1.));
#842 = ( GEOMETRIC_REPRESENTATION_CONTEXT(2) 
PARAMETRIC_REPRESENTATION_CONTEXT() REPRESENTATION_CONTEXT('2D SPACE',''
  ) );
#843 = PCURVE('',#72,#844);
#844 = DEFINITIONAL_REPRESENTATION('',(#845),#849);
#845 = LINE('',#846,#847);
#846 = CARTESIAN_POINT('',(0.,20.));
#847 = VECTOR('',#848,1.);
#848 = DIRECTION('',(1.,0.));
#849 = ( GEOMETRIC_REPRESENTATION_CONTEXT(2) 
PARAMETRIC_REPRESENTATION_CONTEXT() REPRESENTATION_CONTEXT('2D SPACE',''
  ) );
#850 = ORIENTED_EDGE('',*,*,#84,.T.);
#851 = ORIENTED_EDGE('',*,*,#242,.T.);
#852 = ORIENTED_EDGE('',*,*,#853,.F.);
#853 = EDGE_CURVE('',#829,#220,#854,.T.);
#854 = SURFACE_CURVE('',#855,(#859,#866),.PCURVE_S1.);
#855 = LINE('',#856,#857);
#856 = CARTESIAN_POINT('',(10.,10.,0.));
#857 = VECTOR('',#858,1.);
#858 = DIRECTION('',(0.,0.,1.));
#859 = PCURVE('',#100,#860);
#860 = DEFINITIONAL_REPRESENTATION('',(#861),#865);
#861 = LINE('',#862,#863);
#862 = CARTESIAN_POINT('',(0.,20.));
#863 = VECTOR('',#864,1.);
#864 = DIRECTION('',(1.,0.));
#865 = ( GEOMETRIC_REPRESENTATION_CONTEXT(2) 
PARAMETRIC_REPRESENTATION_CONTEXT() REPRESENTATION_CONTEXT('2D SPACE',''
  ) );
#866 = PCURVE('',#202,#867);
#867 = DEFINITIONAL_REPRESENTATION('',(#868),#872);
#868 = LINE('',#869,#870);
#869 = CARTESIAN_POINT('',(0.,-20.));
#870 = VECTOR('',#871,1.);
#871 = DIRECTION('',(1.,0.));
#872 = ( GEOMETRIC_REPRESENTATION_CONTEXT(2) 
PARAMETRIC_REPRESENTATION_CONTEXT() REPRESENTATION_CONTEXT('2D SPACE',''
  ) );
#873 = ADVANCED_FACE('',(#874,#900),#72,.F.);
#874 = FACE_BOUND('',#875,.F.);
#875 = EDGE_LOOP('',(#876,#877,#878,#899));
#876 = ORIENTED_EDGE('',*,*,#56,.F.);
#877 = ORIENTED_EDGE('',*,*,#141,.T.);
#878 = ORIENTED_EDGE('',*,*,#879,.T.);
#879 = EDGE_CURVE('',#142,#829,#880,.T.);
#880 = SURFACE_CURVE('',#881,(#885,#892),.PCURVE_S1.);
#881 = LINE('',#882,#883);
#882 = CARTESIAN_POINT('',(10.,-10.,0.));
#883 = VECTOR('',#884,1.);
#884 = DIRECTION('',(-0.,1.,0.));
#885 = PCURVE('',#72,#886);
#886 = DEFINITIONAL_REPRESENTATION('',(#887),#891);
#887 = LINE('',#888,#889);
#888 = CARTESIAN_POINT('',(20.,0.));
#889 = VECTOR('',#890,1.);
#890 = DIRECTION('',(0.,1.));
#891 = ( GEOMETRIC_REPRESENTATION_CONTEXT(2) 
PARAMETRIC_REPRESENTATION_CONTEXT() REPRESENTATION_CONTEXT('2D SPACE',''
  ) );
#892 = PCURVE('',#202,#893);
#893 = DEFINITIONAL_REPRESENTATION('',(#894),#898);
#894 = LINE('',#895,#896);
#895 = CARTESIAN_POINT('',(0.,0.));
#896 = VECTOR('',#897,1.);
#897 = DIRECTION('',(0.,-1.));
#898 = ( GEOMETRIC_REPRESENTATION_CONTEXT(2) 
PARAMETRIC_REPRESENTATION_CONTEXT() REPRESENTATION_CONTEXT('2D SPACE',''
  ) );
#899 = ORIENTED_EDGE('',*,*,#828,.F.);
#900 = FACE_BOUND('',#901,.F.);
#901 = EDGE_LOOP('',(#902));
#902 = ORIENTED_EDGE('',*,*,#903,.T.);
#903 = EDGE_CURVE('',#904,#904,#906,.T.);
#904 = VERTEX_POINT('',#905);
#905 = CARTESIAN_POINT('',(6.,-7.347880794884E-16,4.440892098501E-16));
#906 = SURFACE_CURVE('',#907,(#1085,#1266),.PCURVE_S1.);
#907 = B_SPLINE_CURVE_WITH_KNOTS('',8,(#908,#909,#910,#911,#912,#913,
    #914,#915,#916,#917,#918,#919,#920,#921,#922,#923,#924,#925,#926,
    #927,#928,#929,#930,#931,#932,#933,#934,#935,#936,#937,#938,#939,
    #940,#941,#942,#943,#944,#945,#946,#947,#948,#949,#950,#951,#952,
    #953,#954,#955,#956,#957,#958,#959,#960,#961,#962,#963,#964,#965,
    #966,#967,#968,#969,#970,#971,#972,#973,#974,#975,#976,#977,#978,
    #979,#980,#981,#982,#983,#984,#985,#986,#987,#988,#989,#990,#991,
    #992,#993,#994,#995,#996,#997,#998,#999,#1000,#1001,#1002,#1003,
    #1004,#1005,#1006,#1007,#1008,#1009,#1010,#1011,#1012,#1013,#1014,
    #1015,#1016,#1017,#1018,#1019,#1020,#1021,#1022,#1023,#1024,#1025,
    #1026,#1027,#1028,#1029,#1030,#1031,#1032,#1033,#1034,#1035,#1036,
    #1037,#1038,#1039,#1040,#1041,#1042,#1043,#1044,#1045,#1046,#1047,
    #1048,#1049,#1050,#1051,#1052,#1053,#1054,#1055,#1056,#1057,#1058,
    #1059,#1060,#1061,#1062,#1063,#1064,#1065,#1066,#1067,#1068,#1069,
    #1070,#1071,#1072,#1073,#1074,#1075,#1076,#1077,#1078,#1079,#1080,
    #1081,#1082,#1083,#1084),.UNSPECIFIED.,.T.,.F.,(9,7,7,7,7,7,7,7,7,7,
    7,7,7,7,7,7,7,7,7,7,7,7,7,7,7,9),(0.,3.099146560161E-02,
    5.14176299894E-02,8.347476586092E-02,0.115150469062,0.179805737912,
    0.248473171123,0.352213400555,0.358026124083,0.405607148115,
    0.45017614851,0.471341266016,0.487250301068,0.499692121561,
    0.516595411137,0.544159622261,0.586169999077,0.631635202037,
    0.639430190199,0.647225178361,0.751126754656,0.866620542197,
    0.898351949748,0.930061770591,0.962518327658,1.),.UNSPECIFIED.);
#908 = CARTESIAN_POINT('',(6.,1.7763568394E-15,0.));
#909 = CARTESIAN_POINT('',(6.000000021835,-0.107033464676,0.));
#910 = CARTESIAN_POINT('',(5.991271447419,-0.21452933257,0.));
#911 = CARTESIAN_POINT('',(5.973682491504,-0.321528241009,0.));
#912 = CARTESIAN_POINT('',(5.947467458827,-0.427237060771,0.));
#913 = CARTESIAN_POINT('',(5.913110083705,-0.531014529415,0.));
#914 = CARTESIAN_POINT('',(5.871248137036,-0.632356874876,0.));
#915 = CARTESIAN_POINT('',(5.822599300715,-0.730883429342,0.));
#916 = CARTESIAN_POINT('',(5.731862119825,-0.889225094018,0.));
#917 = CARTESIAN_POINT('',(5.693176330105,-0.950811303116,0.));
#918 = CARTESIAN_POINT('',(5.652046540776,-1.011027913445,0.));
#919 = CARTESIAN_POINT('',(5.608663229585,-1.069842598616,0.));
#920 = CARTESIAN_POINT('',(5.563207946558,-1.127241001003,0.));
#921 = CARTESIAN_POINT('',(5.515849509007,-1.183224079626,0.));
#922 = CARTESIAN_POINT('',(5.466740196544,-1.23780545804,0.));
#923 = CARTESIAN_POINT('',(5.336398179371,-1.374506991192,0.));
#924 = CARTESIAN_POINT('',(5.25282405139,-1.454585223565,0.));
#925 = CARTESIAN_POINT('',(5.165795340916,-1.531351197735,0.));
#926 = CARTESIAN_POINT('',(5.075754942553,-1.60492007945,0.));
#927 = CARTESIAN_POINT('',(4.983083149853,-1.675413638545,0.));
#928 = CARTESIAN_POINT('',(4.888097938436,-1.742959415676,0.));
#929 = CARTESIAN_POINT('',(4.7910552491,-1.807689889056,0.));
#930 = CARTESIAN_POINT('',(4.59441919455,-1.93105525336,0.));
#931 = CARTESIAN_POINT('',(4.49489510809,-1.989737862695,0.));
#932 = CARTESIAN_POINT('',(4.393779589513,-2.045911796032,0.));
#933 = CARTESIAN_POINT('',(4.291249342105,-2.099686880548,0.));
#934 = CARTESIAN_POINT('',(4.18745668149,-2.151162578827,0.));
#935 = CARTESIAN_POINT('',(4.082531022623,-2.200430123942,0.));
#936 = CARTESIAN_POINT('',(3.976580366792,-2.247574654522,0.));
#937 = CARTESIAN_POINT('',(3.651515913471,-2.384739284587,0.));
#938 = CARTESIAN_POINT('',(3.429514872557,-2.468260397088,0.));
#939 = CARTESIAN_POINT('',(3.204412178245,-2.543935902371,0.));
#940 = CARTESIAN_POINT('',(2.97679088751,-2.61228331083,0.));
#941 = CARTESIAN_POINT('',(2.74712128651,-2.673711238187,0.));
#942 = CARTESIAN_POINT('',(2.51577760318,-2.728561377447,0.));
#943 = CARTESIAN_POINT('',(2.283044747825,-2.777123632828,0.));
#944 = CARTESIAN_POINT('',(1.800669792903,-2.864762716929,0.));
#945 = CARTESIAN_POINT('',(1.550942253322,-2.903053866998,0.));
#946 = CARTESIAN_POINT('',(1.300208095258,-2.93477211538,0.));
#947 = CARTESIAN_POINT('',(1.048717646676,-2.960115966481,0.));
#948 = CARTESIAN_POINT('',(0.796699306722,-2.979227830381,0.));
#949 = CARTESIAN_POINT('',(0.544361953947,-2.99220539566,0.));
#950 = CARTESIAN_POINT('',(0.291896387236,-2.999104724279,0.));
#951 = CARTESIAN_POINT('',(-0.341870133931,-3.001189377129,0.));
#952 = CARTESIAN_POINT('',(-0.722919878056,-2.988593186631,0.));
#953 = CARTESIAN_POINT('',(-1.103213320524,-2.962200573649,0.));
#954 = CARTESIAN_POINT('',(-1.482111971563,-2.92181579102,0.));
#955 = CARTESIAN_POINT('',(-1.858782001648,-2.867019986263,0.));
#956 = CARTESIAN_POINT('',(-2.232193049866,-2.797200226584,0.));
#957 = CARTESIAN_POINT('',(-2.601085135122,-2.711477031458,0.));
#958 = CARTESIAN_POINT('',(-2.984182110606,-2.602652652231,0.));
#959 = CARTESIAN_POINT('',(-3.004486850864,-2.596824941353,0.));
#960 = CARTESIAN_POINT('',(-3.024773712275,-2.590942116635,0.));
#961 = CARTESIAN_POINT('',(-3.045044941169,-2.585003158495,0.));
#962 = CARTESIAN_POINT('',(-3.065301541026,-2.579007392263,0.));
#963 = CARTESIAN_POINT('',(-3.085543272467,-2.572954488184,0.));
#964 = CARTESIAN_POINT('',(-3.105768653261,-2.566844461414,0.));
#965 = CARTESIAN_POINT('',(-3.291558537433,-2.510143312181,0.));
#966 = CARTESIAN_POINT('',(-3.455989237296,-2.455761200347,0.));
#967 = CARTESIAN_POINT('',(-3.619110992864,-2.397351615688,0.));
#968 = CARTESIAN_POINT('',(-3.780711499304,-2.334708323353,0.));
#969 = CARTESIAN_POINT('',(-3.940522683049,-2.267601035957,0.));
#970 = CARTESIAN_POINT('',(-4.098216233193,-2.195767658969,0.));
#971 = CARTESIAN_POINT('',(-4.253394193235,-2.118896320013,0.));
#972 = CARTESIAN_POINT('',(-4.548121881696,-1.959507838344,0.));
#973 = CARTESIAN_POINT('',(-4.687931134053,-1.877712006629,0.));
#974 = CARTESIAN_POINT('',(-4.824691954339,-1.790861613027,0.));
#975 = CARTESIAN_POINT('',(-4.957890017876,-1.698592405034,0.));
#976 = CARTESIAN_POINT('',(-5.086817921557,-1.600540204692,0.));
#977 = CARTESIAN_POINT('',(-5.210570689821,-1.49633963032,0.));
#978 = CARTESIAN_POINT('',(-5.328025956259,-1.385605286782,0.));
#979 = CARTESIAN_POINT('',(-5.489942962945,-1.211996854423,0.));
#980 = CARTESIAN_POINT('',(-5.540322268838,-1.154549902539,0.));
#981 = CARTESIAN_POINT('',(-5.588794528856,-1.095518905677,0.));
#982 = CARTESIAN_POINT('',(-5.635180650108,-1.034879938455,0.));
#983 = CARTESIAN_POINT('',(-5.679279384459,-0.972624128933,0.));
#984 = CARTESIAN_POINT('',(-5.720872056509,-0.908760974443,0.));
#985 = CARTESIAN_POINT('',(-5.759727291574,-0.843321657424,0.));
#986 = CARTESIAN_POINT('',(-5.822574547722,-0.726031484253,0.));
#987 = CARTESIAN_POINT('',(-5.847860360318,-0.674844160762,0.));
#988 = CARTESIAN_POINT('',(-5.871361099686,-0.622828703648,0.));
#989 = CARTESIAN_POINT('',(-5.892971760513,-0.570023733207,0.));
#990 = CARTESIAN_POINT('',(-5.912588282469,-0.516479522493,0.));
#991 = CARTESIAN_POINT('',(-5.93011141873,-0.462259342628,0.));
#992 = CARTESIAN_POINT('',(-5.945450604494,-0.407440808128,0.));
#993 = CARTESIAN_POINT('',(-5.96875508605,-0.308850819668,0.));
#994 = CARTESIAN_POINT('',(-5.977599719207,-0.265272820967,0.));
#995 = CARTESIAN_POINT('',(-5.985024280244,-0.221428842558,0.));
#996 = CARTESIAN_POINT('',(-5.990997368604,-0.177367095422,0.));
#997 = CARTESIAN_POINT('',(-5.995494368434,-0.133138430645,0.));
#998 = CARTESIAN_POINT('',(-5.998498189121,-8.879638499724E-02,0.));
#999 = CARTESIAN_POINT('',(-6.000000005822,-4.439722649952E-02,0.));
#1000 = CARTESIAN_POINT('',(-6.000000054292,6.031742794325E-02,0.));
#1001 = CARTESIAN_POINT('',(-5.997227950745,0.120643055129,0.));
#1002 = CARTESIAN_POINT('',(-5.99168281358,0.180823506108,0.));
#1003 = CARTESIAN_POINT('',(-5.983395378184,0.240717931951,0.));
#1004 = CARTESIAN_POINT('',(-5.972423719004,0.300197540525,0.));
#1005 = CARTESIAN_POINT('',(-5.958848977446,0.35914512677,0.));
#1006 = CARTESIAN_POINT('',(-5.942771089759,0.417454602983,0.));
#1007 = CARTESIAN_POINT('',(-5.894191345626,0.568919519334,0.));
#1008 = CARTESIAN_POINT('',(-5.857722840912,0.660867507283,0.));
#1009 = CARTESIAN_POINT('',(-5.815383855749,0.750502573151,0.));
#1010 = CARTESIAN_POINT('',(-5.767725184335,0.837584328629,0.));
#1011 = CARTESIAN_POINT('',(-5.715305327345,0.921974661733,0.));
#1012 = CARTESIAN_POINT('',(-5.658647394298,1.003615477655,0.));
#1013 = CARTESIAN_POINT('',(-5.598211141049,1.082513435588,0.));
#1014 = CARTESIAN_POINT('',(-5.437095232676,1.274895323701,0.));
#1015 = CARTESIAN_POINT('',(-5.332025994975,1.384713051883,0.));
#1016 = CARTESIAN_POINT('',(-5.220498752609,1.488486130103,0.));
#1017 = CARTESIAN_POINT('',(-5.103621032667,1.586509267149,0.));
#1018 = CARTESIAN_POINT('',(-4.98230058294,1.679086663588,0.));
#1019 = CARTESIAN_POINT('',(-4.85725492758,1.766538219642,0.));
#1020 = CARTESIAN_POINT('',(-4.729011461503,1.849195903931,0.));
#1021 = CARTESIAN_POINT('',(-4.456002391102,2.012015141786,0.));
#1022 = CARTESIAN_POINT('',(-4.310865944802,2.091342629011,0.));
#1023 = CARTESIAN_POINT('',(-4.163003896105,2.165754254398,0.));
#1024 = CARTESIAN_POINT('',(-4.01284065491,2.235557288747,0.));
#1025 = CARTESIAN_POINT('',(-3.860725292135,2.301012316081,0.));
#1026 = CARTESIAN_POINT('',(-3.706941553953,2.362350675614,0.));
#1027 = CARTESIAN_POINT('',(-3.55171248768,2.41978179361,0.));
#1028 = CARTESIAN_POINT('',(-3.368365667267,2.482698732198,0.));
#1029 = CARTESIAN_POINT('',(-3.341505076354,2.491793825544,0.));
#1030 = CARTESIAN_POINT('',(-3.314620515892,2.500776189586,0.));
#1031 = CARTESIAN_POINT('',(-3.287714553256,2.509646345146,0.));
#1032 = CARTESIAN_POINT('',(-3.260789713882,2.518404829476,0.));
#1033 = CARTESIAN_POINT('',(-3.233848481267,2.527052196255,0.));
#1034 = CARTESIAN_POINT('',(-3.206893296964,2.535589015594,0.));
#1035 = CARTESIAN_POINT('',(-3.152989034308,2.552434449609,0.));
#1036 = CARTESIAN_POINT('',(-3.12597932161,2.56076025787,0.));
#1037 = CARTESIAN_POINT('',(-3.098963012127,2.568975961215,0.));
#1038 = CARTESIAN_POINT('',(-3.071973950524,2.577073229556,0.));
#1039 = CARTESIAN_POINT('',(-3.045014236498,2.585052740307,0.));
#1040 = CARTESIAN_POINT('',(-3.018054224776,2.592924178389,0.));
#1041 = CARTESIAN_POINT('',(-2.991032525118,2.60070623623,0.));
#1042 = CARTESIAN_POINT('',(-2.601085135123,2.711477031459,0.));
#1043 = CARTESIAN_POINT('',(-2.232193049868,2.797200226582,0.));
#1044 = CARTESIAN_POINT('',(-1.858782001649,2.867019986264,0.));
#1045 = CARTESIAN_POINT('',(-1.482111971564,2.921815791021,0.));
#1046 = CARTESIAN_POINT('',(-1.103213320526,2.962200573647,0.));
#1047 = CARTESIAN_POINT('',(-0.722919878056,2.988593186632,0.));
#1048 = CARTESIAN_POINT('',(-0.341870133932,3.001189377128,0.));
#1049 = CARTESIAN_POINT('',(0.463370254507,2.998540727088,0.));
#1050 = CARTESIAN_POINT('',(0.887146986323,2.980031443695,0.));
#1051 = CARTESIAN_POINT('',(1.310267592206,2.944399784279,0.));
#1052 = CARTESIAN_POINT('',(1.731890879255,2.891191415044,0.));
#1053 = CARTESIAN_POINT('',(2.150885085579,2.819682024537,0.));
#1054 = CARTESIAN_POINT('',(2.565764924851,2.728662514026,0.));
#1055 = CARTESIAN_POINT('',(2.974717273128,2.616572451875,0.));
#1056 = CARTESIAN_POINT('',(3.485352307243,2.442848622321,0.));
#1057 = CARTESIAN_POINT('',(3.594743368825,2.403591511461,0.));
#1058 = CARTESIAN_POINT('',(3.70340814668,2.362459779351,0.));
#1059 = CARTESIAN_POINT('',(3.811274449109,2.319389148939,0.));
#1060 = CARTESIAN_POINT('',(3.918257663096,2.274309669493,0.));
#1061 = CARTESIAN_POINT('',(4.024259890214,2.22714413666,0.));
#1062 = CARTESIAN_POINT('',(4.129169082541,2.177806512531,0.));
#1063 = CARTESIAN_POINT('',(4.33647590132,2.074629335919,0.));
#1064 = CARTESIAN_POINT('',(4.438862387554,2.020799676836,0.));
#1065 = CARTESIAN_POINT('',(4.53989745363,1.964610201682,0.));
#1066 = CARTESIAN_POINT('',(4.639429851406,1.905957169307,0.));
#1067 = CARTESIAN_POINT('',(4.737275350583,1.84473212788,0.));
#1068 = CARTESIAN_POINT('',(4.833214821072,1.780819778596,0.));
#1069 = CARTESIAN_POINT('',(4.926992315355,1.714095839382,0.));
#1070 = CARTESIAN_POINT('',(5.111783855854,1.573113393853,0.));
#1071 = CARTESIAN_POINT('',(5.202640307359,1.498744467183,0.));
#1072 = CARTESIAN_POINT('',(5.290592575773,1.421156564928,0.));
#1073 = CARTESIAN_POINT('',(5.375250260081,1.340210886991,0.));
#1074 = CARTESIAN_POINT('',(5.456126761429,1.255796760645,0.));
#1075 = CARTESIAN_POINT('',(5.532647559694,1.167840372504,0.));
#1076 = CARTESIAN_POINT('',(5.604162493028,1.076316868643,0.));
#1077 = CARTESIAN_POINT('',(5.745948154984,0.871499371996,0.));
#1078 = CARTESIAN_POINT('',(5.814353833321,0.756971695466,0.));
#1079 = CARTESIAN_POINT('',(5.873950478205,0.637906791537,0.));
#1080 = CARTESIAN_POINT('',(5.923441266867,0.514745215781,0.));
#1081 = CARTESIAN_POINT('',(5.961563830949,0.388185452484,0.));
#1082 = CARTESIAN_POINT('',(5.987272522639,0.259231014253,0.));
#1083 = CARTESIAN_POINT('',(6.000000266926,0.12924326981,0.));
#1084 = CARTESIAN_POINT('',(6.,0.,0.));
#1085 = PCURVE('',#72,#1086);
#1086 = DEFINITIONAL_REPRESENTATION('',(#1087),#1265);
#1087 = B_SPLINE_CURVE_WITH_KNOTS('',8,(#1088,#1089,#1090,#1091,#1092,
    #1093,#1094,#1095,#1096,#1097,#1098,#1099,#1100,#1101,#1102,#1103,
    #1104,#1105,#1106,#1107,#1108,#1109,#1110,#1111,#1112,#1113,#1114,
    #1115,#1116,#1117,#1118,#1119,#1120,#1121,#1122,#1123,#1124,#1125,
    #1126,#1127,#1128,#1129,#1130,#1131,#1132,#1133,#1134,#1135,#1136,
    #1137,#1138,#1139,#1140,#1141,#1142,#1143,#1144,#1145,#1146,#1147,
    #1148,#1149,#1150,#1151,#1152,#1153,#1154,#1155,#1156,#1157,#1158,
    #1159,#1160,#1161,#1162,#1163,#1164,#1165,#1166,#1167,#1168,#1169,
    #1170,#1171,#1172,#1173,#1174,#1175,#1176,#1177,#1178,#1179,#1180,
    #1181,#1182,#1183,#1184,#1185,#1186,#1187,#1188,#1189,#1190,#1191,
    #1192,#1193,#1194,#1195,#1196,#1197,#1198,#1199,#1200,#1201,#1202,
    #1203,#1204,#1205,#1206,#1207,#1208,#1209,#1210,#1211,#1212,#1213,
    #1214,#1215,#1216,#1217,#1218,#1219,#1220,#1221,#1222,#1223,#1224,
    #1225,#1226,#1227,#1228,#1229,#1230,#1231,#1232,#1233,#1234,#1235,
    #1236,#1237,#1238,#1239,#1240,#1241,#1242,#1243,#1244,#1245,#1246,
    #1247,#1248,#1249,#1250,#1251,#1252,#1253,#1254,#1255,#1256,#1257,
    #1258,#1259,#1260,#1261,#1262,#1263,#1264),.UNSPECIFIED.,.F.,.F.,(9,
    7,7,7,7,7,7,7,7,7,7,7,7,7,7,7,7,7,7,7,7,7,7,7,7,9),(0.,
    3.099146560161E-02,5.14176299894E-02,8.347476586092E-02,
    0.115150469062,0.179805737912,0.248473171123,0.352213400555,
    0.358026124083,0.405607148115,0.45017614851,0.471341266016,
    0.487250301068,0.499692121561,0.516595411137,0.544159622261,
    0.586169999077,0.631635202037,0.639430190199,0.647225178361,
    0.751126754656,0.866620542197,0.898351949748,0.930061770591,
    0.962518327658,1.),.UNSPECIFIED.);
#1088 = CARTESIAN_POINT('',(16.,10.));
#1089 = CARTESIAN_POINT('',(16.000000021835,9.892966535324));
#1090 = CARTESIAN_POINT('',(15.991271447419,9.78547066743));
#1091 = CARTESIAN_POINT('',(15.973682491504,9.678471758991));
#1092 = CARTESIAN_POINT('',(15.947467458827,9.572762939229));
#1093 = CARTESIAN_POINT('',(15.913110083705,9.468985470585));
#1094 = CARTESIAN_POINT('',(15.871248137036,9.367643125124));
#1095 = CARTESIAN_POINT('',(15.822599300715,9.269116570658));
#1096 = CARTESIAN_POINT('',(15.731862119825,9.110774905982));
#1097 = CARTESIAN_POINT('',(15.693176330105,9.049188696884));
#1098 = CARTESIAN_POINT('',(15.652046540776,8.988972086555));
#1099 = CARTESIAN_POINT('',(15.608663229585,8.930157401384));
#1100 = CARTESIAN_POINT('',(15.563207946558,8.872758998997));
#1101 = CARTESIAN_POINT('',(15.515849509007,8.816775920374));
#1102 = CARTESIAN_POINT('',(15.466740196544,8.76219454196));
#1103 = CARTESIAN_POINT('',(15.336398179371,8.625493008808));
#1104 = CARTESIAN_POINT('',(15.25282405139,8.545414776435));
#1105 = CARTESIAN_POINT('',(15.165795340916,8.468648802265));
#1106 = CARTESIAN_POINT('',(15.075754942553,8.39507992055));
#1107 = CARTESIAN_POINT('',(14.983083149853,8.324586361455));
#1108 = CARTESIAN_POINT('',(14.888097938436,8.257040584324));
#1109 = CARTESIAN_POINT('',(14.7910552491,8.192310110944));
#1110 = CARTESIAN_POINT('',(14.59441919455,8.06894474664));
#1111 = CARTESIAN_POINT('',(14.49489510809,8.010262137305));
#1112 = CARTESIAN_POINT('',(14.393779589513,7.954088203968));
#1113 = CARTESIAN_POINT('',(14.291249342105,7.900313119452));
#1114 = CARTESIAN_POINT('',(14.18745668149,7.848837421173));
#1115 = CARTESIAN_POINT('',(14.082531022623,7.799569876058));
#1116 = CARTESIAN_POINT('',(13.976580366792,7.752425345478));
#1117 = CARTESIAN_POINT('',(13.651515913471,7.615260715413));
#1118 = CARTESIAN_POINT('',(13.429514872557,7.531739602912));
#1119 = CARTESIAN_POINT('',(13.204412178245,7.456064097629));
#1120 = CARTESIAN_POINT('',(12.97679088751,7.38771668917));
#1121 = CARTESIAN_POINT('',(12.74712128651,7.326288761813));
#1122 = CARTESIAN_POINT('',(12.51577760318,7.271438622553));
#1123 = CARTESIAN_POINT('',(12.283044747825,7.222876367172));
#1124 = CARTESIAN_POINT('',(11.800669792903,7.135237283071));
#1125 = CARTESIAN_POINT('',(11.550942253322,7.096946133002));
#1126 = CARTESIAN_POINT('',(11.300208095258,7.06522788462));
#1127 = CARTESIAN_POINT('',(11.048717646676,7.039884033519));
#1128 = CARTESIAN_POINT('',(10.796699306722,7.020772169619));
#1129 = CARTESIAN_POINT('',(10.544361953947,7.00779460434));
#1130 = CARTESIAN_POINT('',(10.291896387236,7.000895275721));
#1131 = CARTESIAN_POINT('',(9.658129866069,6.998810622871));
#1132 = CARTESIAN_POINT('',(9.277080121944,7.011406813369));
#1133 = CARTESIAN_POINT('',(8.896786679476,7.037799426351));
#1134 = CARTESIAN_POINT('',(8.517888028437,7.07818420898));
#1135 = CARTESIAN_POINT('',(8.141217998352,7.132980013737));
#1136 = CARTESIAN_POINT('',(7.767806950134,7.202799773416));
#1137 = CARTESIAN_POINT('',(7.398914864878,7.288522968542));
#1138 = CARTESIAN_POINT('',(7.015817889394,7.397347347769));
#1139 = CARTESIAN_POINT('',(6.995513149136,7.403175058647));
#1140 = CARTESIAN_POINT('',(6.975226287725,7.409057883365));
#1141 = CARTESIAN_POINT('',(6.954955058831,7.414996841505));
#1142 = CARTESIAN_POINT('',(6.934698458974,7.420992607737));
#1143 = CARTESIAN_POINT('',(6.914456727533,7.427045511816));
#1144 = CARTESIAN_POINT('',(6.894231346739,7.433155538586));
#1145 = CARTESIAN_POINT('',(6.708441462567,7.489856687819));
#1146 = CARTESIAN_POINT('',(6.544010762704,7.544238799653));
#1147 = CARTESIAN_POINT('',(6.380889007136,7.602648384312));
#1148 = CARTESIAN_POINT('',(6.219288500696,7.665291676647));
#1149 = CARTESIAN_POINT('',(6.059477316951,7.732398964043));
#1150 = CARTESIAN_POINT('',(5.901783766807,7.804232341031));
#1151 = CARTESIAN_POINT('',(5.746605806765,7.881103679987));
#1152 = CARTESIAN_POINT('',(5.451878118304,8.040492161656));
#1153 = CARTESIAN_POINT('',(5.312068865947,8.122287993371));
#1154 = CARTESIAN_POINT('',(5.175308045661,8.209138386973));
#1155 = CARTESIAN_POINT('',(5.042109982124,8.301407594966));
#1156 = CARTESIAN_POINT('',(4.913182078443,8.399459795308));
#1157 = CARTESIAN_POINT('',(4.789429310179,8.50366036968));
#1158 = CARTESIAN_POINT('',(4.671974043741,8.614394713218));
#1159 = CARTESIAN_POINT('',(4.510057037055,8.788003145577));
#1160 = CARTESIAN_POINT('',(4.459677731162,8.845450097461));
#1161 = CARTESIAN_POINT('',(4.411205471144,8.904481094323));
#1162 = CARTESIAN_POINT('',(4.364819349892,8.965120061545));
#1163 = CARTESIAN_POINT('',(4.320720615541,9.027375871067));
#1164 = CARTESIAN_POINT('',(4.279127943491,9.091239025557));
#1165 = CARTESIAN_POINT('',(4.240272708426,9.156678342576));
#1166 = CARTESIAN_POINT('',(4.177425452278,9.273968515747));
#1167 = CARTESIAN_POINT('',(4.152139639682,9.325155839238));
#1168 = CARTESIAN_POINT('',(4.128638900314,9.377171296352));
#1169 = CARTESIAN_POINT('',(4.107028239487,9.429976266793));
#1170 = CARTESIAN_POINT('',(4.087411717531,9.483520477507));
#1171 = CARTESIAN_POINT('',(4.06988858127,9.537740657372));
#1172 = CARTESIAN_POINT('',(4.054549395506,9.592559191872));
#1173 = CARTESIAN_POINT('',(4.03124491395,9.691149180332));
#1174 = CARTESIAN_POINT('',(4.022400280793,9.734727179033));
#1175 = CARTESIAN_POINT('',(4.014975719756,9.778571157442));
#1176 = CARTESIAN_POINT('',(4.009002631396,9.822632904578));
#1177 = CARTESIAN_POINT('',(4.004505631566,9.866861569355));
#1178 = CARTESIAN_POINT('',(4.001501810879,9.911203615003));
#1179 = CARTESIAN_POINT('',(3.999999994178,9.9556027735));
#1180 = CARTESIAN_POINT('',(3.999999945708,10.060317427943));
#1181 = CARTESIAN_POINT('',(4.002772049255,10.120643055129));
#1182 = CARTESIAN_POINT('',(4.00831718642,10.180823506108));
#1183 = CARTESIAN_POINT('',(4.016604621816,10.240717931951));
#1184 = CARTESIAN_POINT('',(4.027576280996,10.300197540525));
#1185 = CARTESIAN_POINT('',(4.041151022554,10.35914512677));
#1186 = CARTESIAN_POINT('',(4.057228910241,10.417454602983));
#1187 = CARTESIAN_POINT('',(4.105808654374,10.568919519334));
#1188 = CARTESIAN_POINT('',(4.142277159088,10.660867507283));
#1189 = CARTESIAN_POINT('',(4.184616144251,10.750502573151));
#1190 = CARTESIAN_POINT('',(4.232274815665,10.837584328629));
#1191 = CARTESIAN_POINT('',(4.284694672655,10.921974661733));
#1192 = CARTESIAN_POINT('',(4.341352605702,11.003615477655));
#1193 = CARTESIAN_POINT('',(4.401788858951,11.082513435588));
#1194 = CARTESIAN_POINT('',(4.562904767324,11.274895323701));
#1195 = CARTESIAN_POINT('',(4.667974005025,11.384713051883));
#1196 = CARTESIAN_POINT('',(4.779501247391,11.488486130103));
#1197 = CARTESIAN_POINT('',(4.896378967333,11.586509267149));
#1198 = CARTESIAN_POINT('',(5.01769941706,11.679086663588));
#1199 = CARTESIAN_POINT('',(5.14274507242,11.766538219642));
#1200 = CARTESIAN_POINT('',(5.270988538497,11.849195903931));
#1201 = CARTESIAN_POINT('',(5.543997608898,12.012015141786));
#1202 = CARTESIAN_POINT('',(5.689134055198,12.091342629011));
#1203 = CARTESIAN_POINT('',(5.836996103895,12.165754254398));
#1204 = CARTESIAN_POINT('',(5.98715934509,12.235557288747));
#1205 = CARTESIAN_POINT('',(6.139274707865,12.301012316081));
#1206 = CARTESIAN_POINT('',(6.293058446047,12.362350675614));
#1207 = CARTESIAN_POINT('',(6.44828751232,12.41978179361));
#1208 = CARTESIAN_POINT('',(6.631634332733,12.482698732198));
#1209 = CARTESIAN_POINT('',(6.658494923646,12.491793825544));
#1210 = CARTESIAN_POINT('',(6.685379484108,12.500776189586));
#1211 = CARTESIAN_POINT('',(6.712285446744,12.509646345146));
#1212 = CARTESIAN_POINT('',(6.739210286118,12.518404829476));
#1213 = CARTESIAN_POINT('',(6.766151518733,12.527052196255));
#1214 = CARTESIAN_POINT('',(6.793106703036,12.535589015594));
#1215 = CARTESIAN_POINT('',(6.847010965692,12.552434449609));
#1216 = CARTESIAN_POINT('',(6.87402067839,12.56076025787));
#1217 = CARTESIAN_POINT('',(6.901036987873,12.568975961215));
#1218 = CARTESIAN_POINT('',(6.928026049476,12.577073229556));
#1219 = CARTESIAN_POINT('',(6.954985763502,12.585052740307));
#1220 = CARTESIAN_POINT('',(6.981945775224,12.592924178389));
#1221 = CARTESIAN_POINT('',(7.008967474882,12.60070623623));
#1222 = CARTESIAN_POINT('',(7.398914864877,12.711477031459));
#1223 = CARTESIAN_POINT('',(7.767806950132,12.797200226582));
#1224 = CARTESIAN_POINT('',(8.141217998351,12.867019986264));
#1225 = CARTESIAN_POINT('',(8.517888028436,12.921815791021));
#1226 = CARTESIAN_POINT('',(8.896786679474,12.962200573647));
#1227 = CARTESIAN_POINT('',(9.277080121944,12.988593186632));
#1228 = CARTESIAN_POINT('',(9.658129866068,13.001189377128));
#1229 = CARTESIAN_POINT('',(10.463370254507,12.998540727088));
#1230 = CARTESIAN_POINT('',(10.887146986323,12.980031443695));
#1231 = CARTESIAN_POINT('',(11.310267592206,12.944399784279));
#1232 = CARTESIAN_POINT('',(11.731890879255,12.891191415044));
#1233 = CARTESIAN_POINT('',(12.150885085579,12.819682024537));
#1234 = CARTESIAN_POINT('',(12.565764924851,12.728662514026));
#1235 = CARTESIAN_POINT('',(12.974717273128,12.616572451875));
#1236 = CARTESIAN_POINT('',(13.485352307243,12.442848622321));
#1237 = CARTESIAN_POINT('',(13.594743368825,12.403591511461));
#1238 = CARTESIAN_POINT('',(13.70340814668,12.362459779351));
#1239 = CARTESIAN_POINT('',(13.811274449109,12.319389148939));
#1240 = CARTESIAN_POINT('',(13.918257663096,12.274309669493));
#1241 = CARTESIAN_POINT('',(14.024259890214,12.22714413666));
#1242 = CARTESIAN_POINT('',(14.129169082541,12.177806512531));
#1243 = CARTESIAN_POINT('',(14.33647590132,12.074629335919));
#1244 = CARTESIAN_POINT('',(14.438862387554,12.020799676836));
#1245 = CARTESIAN_POINT('',(14.53989745363,11.964610201682));
#1246 = CARTESIAN_POINT('',(14.639429851406,11.905957169307));
#1247 = CARTESIAN_POINT('',(14.737275350583,11.84473212788));
#1248 = CARTESIAN_POINT('',(14.833214821072,11.780819778596));
#1249 = CARTESIAN_POINT('',(14.926992315355,11.714095839382));
#1250 = CARTESIAN_POINT('',(15.111783855854,11.573113393853));
#1251 = CARTESIAN_POINT('',(15.202640307359,11.498744467183));
#1252 = CARTESIAN_POINT('',(15.290592575773,11.421156564928));
#1253 = CARTESIAN_POINT('',(15.375250260081,11.340210886991));
#1254 = CARTESIAN_POINT('',(15.456126761429,11.255796760645));
#1255 = CARTESIAN_POINT('',(15.532647559694,11.167840372504));
#1256 = CARTESIAN_POINT('',(15.604162493028,11.076316868643));
#1257 = CARTESIAN_POINT('',(15.745948154984,10.871499371996));
#1258 = CARTESIAN_POINT('',(15.814353833321,10.756971695466));
#1259 = CARTESIAN_POINT('',(15.873950478205,10.637906791537));
#1260 = CARTESIAN_POINT('',(15.923441266867,10.514745215781));
#1261 = CARTESIAN_POINT('',(15.961563830949,10.388185452484));
#1262 = CARTESIAN_POINT('',(15.987272522639,10.259231014253));
#1263 = CARTESIAN_POINT('',(16.000000266926,10.12924326981));
#1264 = CARTESIAN_POINT('',(16.,10.));
#1265 = ( GEOMETRIC_REPRESENTATION_CONTEXT(2) 
PARAMETRIC_REPRESENTATION_CONTEXT() REPRESENTATION_CONTEXT('2D SPACE',''
  ) );
#1266 = PCURVE('',#629,#1267);
#1267 = DEFINITIONAL_REPRESENTATION('',(#1268),#1446);
#1268 = B_SPLINE_CURVE_WITH_KNOTS('',8,(#1269,#1270,#1271,#1272,#1273,
    #1274,#1275,#1276,#1277,#1278,#1279,#1280,#1281,#1282,#1283,#1284,
    #1285,#1286,#1287,#1288,#1289,#1290,#1291,#1292,#1293,#1294,#1295,
    #1296,#1297,#1298,#1299,#1300,#1301,#1302,#1303,#1304,#1305,#1306,
    #1307,#1308,#1309,#1310,#1311,#1312,#1313,#1314,#1315,#1316,#1317,
    #1318,#1319,#1320,#1321,#1322,#1323,#1324,#1325,#1326,#1327,#1328,
    #1329,#1330,#1331,#1332,#1333,#1334,#1335,#1336,#1337,#1338,#1339,
    #1340,#1341,#1342,#1343,#1344,#1345,#1346,#1347,#1348,#1349,#1350,
    #1351,#1352,#1353,#1354,#1355,#1356,#1357,#1358,#1359,#1360,#1361,
    #1362,#1363,#1364,#1365,#1366,#1367,#1368,#1369,#1370,#1371,#1372,
    #1373,#1374,#1375,#1376,#1377,#1378,#1379,#1380,#1381,#1382,#1383,
    #1384,#1385,#1386,#1387,#1388,#1389,#1390,#1391,#1392,#1393,#1394,
    #1395,#1396,#1397,#1398,#1399,#1400,#1401,#1402,#1403,#1404,#1405,
    #1406,#1407,#1408,#1409,#1410,#1411,#1412,#1413,#1414,#1415,#1416,
    #1417,#1418,#1419,#1420,#1421,#1422,#1423,#1424,#1425,#1426,#1427,
    #1428,#1429,#1430,#1431,#1432,#1433,#1434,#1435,#1436,#1437,#1438,
    #1439,#1440,#1441,#1442,#1443,#1444,#1445),.UNSPECIFIED.,.F.,.F.,(9,
    7,7,7,7,7,7,7,7,7,7,7,7,7,7,7,7,7,7,7,7,7,7,7,7,9),(0.,
    3.099146560161E-02,5.14176299894E-02,8.347476586092E-02,
    0.115150469062,0.179805737912,0.248473171123,0.352213400555,
    0.358026124083,0.405607148115,0.45017614851,0.471341266016,
    0.487250301068,0.499692121561,0.516595411137,0.544159622261,
    0.586169999077,0.631635202037,0.639430190199,0.647225178361,
    0.751126754656,0.866620542197,0.898351949748,0.930061770591,
    0.962518327658,1.),.UNSPECIFIED.);
#1269 = CARTESIAN_POINT('',(6.28318530718,1.));
#1270 = CARTESIAN_POINT('',(6.240043615681,1.));
#1271 = CARTESIAN_POINT('',(6.19773158581,1.));
#1272 = CARTESIAN_POINT('',(6.156482557776,1.));
#1273 = CARTESIAN_POINT('',(6.116428329944,1.));
#1274 = CARTESIAN_POINT('',(6.077636973979,1.));
#1275 = CARTESIAN_POINT('',(6.040138756075,1.));
#1276 = CARTESIAN_POINT('',(6.003940164264,1.));
#1277 = CARTESIAN_POINT('',(5.94601449362,1.));
#1278 = CARTESIAN_POINT('',(5.923552157123,1.));
#1279 = CARTESIAN_POINT('',(5.901625857507,1.));
#1280 = CARTESIAN_POINT('',(5.880219194178,1.));
#1281 = CARTESIAN_POINT('',(5.859313113067,1.));
#1282 = CARTESIAN_POINT('',(5.838886478932,1.));
#1283 = CARTESIAN_POINT('',(5.818916647651,1.));
#1284 = CARTESIAN_POINT('',(5.768718984337,1.));
#1285 = CARTESIAN_POINT('',(5.739134008359,1.));
#1286 = CARTESIAN_POINT('',(5.710528313507,1.));
#1287 = CARTESIAN_POINT('',(5.682816861171,1.));
#1288 = CARTESIAN_POINT('',(5.655923590885,1.));
#1289 = CARTESIAN_POINT('',(5.62977863999,1.));
#1290 = CARTESIAN_POINT('',(5.604315563302,1.));
#1291 = CARTESIAN_POINT('',(5.554917185054,1.));
#1292 = CARTESIAN_POINT('',(5.530973721449,1.));
#1293 = CARTESIAN_POINT('',(5.50757941967,1.));
#1294 = CARTESIAN_POINT('',(5.484683510112,1.));
#1295 = CARTESIAN_POINT('',(5.462241566087,1.));
#1296 = CARTESIAN_POINT('',(5.440213874051,1.));
#1297 = CARTESIAN_POINT('',(5.418563803835,1.));
#1298 = CARTESIAN_POINT('',(5.353763846209,1.));
#1299 = CARTESIAN_POINT('',(5.311714293959,1.));
#1300 = CARTESIAN_POINT('',(5.270809342112,1.));
#1301 = CARTESIAN_POINT('',(5.230826757684,1.));
#1302 = CARTESIAN_POINT('',(5.191587906138,1.));
#1303 = CARTESIAN_POINT('',(5.152935819532,1.));
#1304 = CARTESIAN_POINT('',(5.114723681374,1.));
#1305 = CARTESIAN_POINT('',(5.036551283642,1.));
#1306 = CARTESIAN_POINT('',(4.996639547587,1.));
#1307 = CARTESIAN_POINT('',(4.956918183633,1.));
#1308 = CARTESIAN_POINT('',(4.917245314427,1.));
#1309 = CARTESIAN_POINT('',(4.877488440943,1.));
#1310 = CARTESIAN_POINT('',(4.837516522234,1.));
#1311 = CARTESIAN_POINT('',(4.797193215652,1.));
#1312 = CARTESIAN_POINT('',(4.694698996687,1.));
#1313 = CARTESIAN_POINT('',(4.631920977845,1.));
#1314 = CARTESIAN_POINT('',(4.567501824918,1.));
#1315 = CARTESIAN_POINT('',(4.500902892647,1.));
#1316 = CARTESIAN_POINT('',(4.431486034229,1.));
#1317 = CARTESIAN_POINT('',(4.358490289535,1.));
#1318 = CARTESIAN_POINT('',(4.280918118614,1.));
#1319 = CARTESIAN_POINT('',(4.192475126078,1.));
#1320 = CARTESIAN_POINT('',(4.187756166519,1.));
#1321 = CARTESIAN_POINT('',(4.183028437918,1.));
#1322 = CARTESIAN_POINT('',(4.178303711887,1.));
#1323 = CARTESIAN_POINT('',(4.173588000259,1.));
#1324 = CARTESIAN_POINT('',(4.168881555082,1.));
#1325 = CARTESIAN_POINT('',(4.164178868619,1.));
#1326 = CARTESIAN_POINT('',(4.120912579461,1.));
#1327 = CARTESIAN_POINT('',(4.082554605913,1.));
#1328 = CARTESIAN_POINT('',(4.0443068336,1.));
#1329 = CARTESIAN_POINT('',(4.006083410732,1.));
#1330 = CARTESIAN_POINT('',(3.96779836764,1.));
#1331 = CARTESIAN_POINT('',(3.92936080409,1.));
#1332 = CARTESIAN_POINT('',(3.890667449104,1.));
#1333 = CARTESIAN_POINT('',(3.814991294798,1.));
#1334 = CARTESIAN_POINT('',(3.778082008777,1.));
#1335 = CARTESIAN_POINT('',(3.740743217838,1.));
#1336 = CARTESIAN_POINT('',(3.702863803766,1.));
#1337 = CARTESIAN_POINT('',(3.664339259484,1.));
#1338 = CARTESIAN_POINT('',(3.625062441019,1.));
#1339 = CARTESIAN_POINT('',(3.584908859513,1.));
#1340 = CARTESIAN_POINT('',(3.524154915697,1.));
#1341 = CARTESIAN_POINT('',(3.504367684077,1.));
#1342 = CARTESIAN_POINT('',(3.484341069271,1.));
#1343 = CARTESIAN_POINT('',(3.464064186166,1.));
#1344 = CARTESIAN_POINT('',(3.443529320555,1.));
#1345 = CARTESIAN_POINT('',(3.422732236046,1.));
#1346 = CARTESIAN_POINT('',(3.401672480965,1.));
#1347 = CARTESIAN_POINT('',(3.364329153518,1.));
#1348 = CARTESIAN_POINT('',(3.348158985155,1.));
#1349 = CARTESIAN_POINT('',(3.331846249183,1.));
#1350 = CARTESIAN_POINT('',(3.31539591847,1.));
#1351 = CARTESIAN_POINT('',(3.298815267476,1.));
#1352 = CARTESIAN_POINT('',(3.282114259995,1.));
#1353 = CARTESIAN_POINT('',(3.265305936886,1.));
#1354 = CARTESIAN_POINT('',(3.235190667227,1.));
#1355 = CARTESIAN_POINT('',(3.221918185153,1.));
#1356 = CARTESIAN_POINT('',(3.208597627808,1.));
#1357 = CARTESIAN_POINT('',(3.195237588387,1.));
#1358 = CARTESIAN_POINT('',(3.18184710584,1.));
#1359 = CARTESIAN_POINT('',(3.168435787651,1.));
#1360 = CARTESIAN_POINT('',(3.15501393261,1.));
#1361 = CARTESIAN_POINT('',(3.123358684864,1.));
#1362 = CARTESIAN_POINT('',(3.105122299835,1.));
#1363 = CARTESIAN_POINT('',(3.08691287777,1.));
#1364 = CARTESIAN_POINT('',(3.068756211176,1.));
#1365 = CARTESIAN_POINT('',(3.05067507684,1.));
#1366 = CARTESIAN_POINT('',(3.032689806883,1.));
#1367 = CARTESIAN_POINT('',(3.014818859804,1.));
#1368 = CARTESIAN_POINT('',(2.968151622958,1.));
#1369 = CARTESIAN_POINT('',(2.939570425203,1.));
#1370 = CARTESIAN_POINT('',(2.911396392419,1.));
#1371 = CARTESIAN_POINT('',(2.883662094051,1.));
#1372 = CARTESIAN_POINT('',(2.856380475324,1.));
#1373 = CARTESIAN_POINT('',(2.829549854505,1.));
#1374 = CARTESIAN_POINT('',(2.803155516926,1.));
#1375 = CARTESIAN_POINT('',(2.737560411398,1.));
#1376 = CARTESIAN_POINT('',(2.698939114363,1.));
#1377 = CARTESIAN_POINT('',(2.661177831313,1.));
#1378 = CARTESIAN_POINT('',(2.624174553952,1.));
#1379 = CARTESIAN_POINT('',(2.587837545371,1.));
#1380 = CARTESIAN_POINT('',(2.552074627066,1.));
#1381 = CARTESIAN_POINT('',(2.516785656663,1.));
#1382 = CARTESIAN_POINT('',(2.444058390835,1.));
#1383 = CARTESIAN_POINT('',(2.406713285225,1.));
#1384 = CARTESIAN_POINT('',(2.369702512903,1.));
#1385 = CARTESIAN_POINT('',(2.332928371908,1.));
#1386 = CARTESIAN_POINT('',(2.29630574577,1.));
#1387 = CARTESIAN_POINT('',(2.259754723466,1.));
#1388 = CARTESIAN_POINT('',(2.223195918469,1.));
#1389 = CARTESIAN_POINT('',(2.180265301591,1.));
#1390 = CARTESIAN_POINT('',(2.173982116284,1.));
#1391 = CARTESIAN_POINT('',(2.167698930977,1.));
#1392 = CARTESIAN_POINT('',(2.16141574567,1.));
#1393 = CARTESIAN_POINT('',(2.155132560363,1.));
#1394 = CARTESIAN_POINT('',(2.148849375055,1.));
#1395 = CARTESIAN_POINT('',(2.142566189748,1.));
#1396 = CARTESIAN_POINT('',(2.129999819134,1.));
#1397 = CARTESIAN_POINT('',(2.123716633827,1.));
#1398 = CARTESIAN_POINT('',(2.11743344852,1.));
#1399 = CARTESIAN_POINT('',(2.111150263212,1.));
#1400 = CARTESIAN_POINT('',(2.104867077905,1.));
#1401 = CARTESIAN_POINT('',(2.098583892598,1.));
#1402 = CARTESIAN_POINT('',(2.092300707291,1.));
#1403 = CARTESIAN_POINT('',(2.002267188565,1.));
#1404 = CARTESIAN_POINT('',(1.924695017647,1.));
#1405 = CARTESIAN_POINT('',(1.851699272948,1.));
#1406 = CARTESIAN_POINT('',(1.782282414533,1.));
#1407 = CARTESIAN_POINT('',(1.715683482264,1.));
#1408 = CARTESIAN_POINT('',(1.651264329333,1.));
#1409 = CARTESIAN_POINT('',(1.588486310494,1.));
#1410 = CARTESIAN_POINT('',(1.45826102443,1.));
#1411 = CARTESIAN_POINT('',(1.391153683422,1.));
#1412 = CARTESIAN_POINT('',(1.324746590592,1.));
#1413 = CARTESIAN_POINT('',(1.258414965234,1.));
#1414 = CARTESIAN_POINT('',(1.191569075876,1.));
#1415 = CARTESIAN_POINT('',(1.123523961015,1.));
#1416 = CARTESIAN_POINT('',(1.053511002217,1.));
#1417 = CARTESIAN_POINT('',(0.960028689709,1.));
#1418 = CARTESIAN_POINT('',(0.939636013381,1.));
#1419 = CARTESIAN_POINT('',(0.918972559757,1.));
#1420 = CARTESIAN_POINT('',(0.898010794783,1.));
#1421 = CARTESIAN_POINT('',(0.876720960337,1.));
#1422 = CARTESIAN_POINT('',(0.855070065022,1.));
#1423 = CARTESIAN_POINT('',(0.833020874967,1.));
#1424 = CARTESIAN_POINT('',(0.788056234092,1.));
#1425 = CARTESIAN_POINT('',(0.765144412633,1.));
#1426 = CARTESIAN_POINT('',(0.741750496342,1.));
#1427 = CARTESIAN_POINT('',(0.71782812717,1.));
#1428 = CARTESIAN_POINT('',(0.693327295324,1.));
#1429 = CARTESIAN_POINT('',(0.66819210167,1.));
#1430 = CARTESIAN_POINT('',(0.642358520134,1.));
#1431 = CARTESIAN_POINT('',(0.588519245514,1.));
#1432 = CARTESIAN_POINT('',(0.560488054917,1.));
#1433 = CARTESIAN_POINT('',(0.531571639649,1.));
#1434 = CARTESIAN_POINT('',(0.50168511721,1.));
#1435 = CARTESIAN_POINT('',(0.470743272257,1.));
#1436 = CARTESIAN_POINT('',(0.438659216747,1.));
#1437 = CARTESIAN_POINT('',(0.405344109205,1.));
#1438 = CARTESIAN_POINT('',(0.330709180319,1.));
#1439 = CARTESIAN_POINT('',(0.288929690142,1.));
#1440 = CARTESIAN_POINT('',(0.245285149965,1.));
#1441 = CARTESIAN_POINT('',(0.199737771715,1.));
#1442 = CARTESIAN_POINT('',(0.152288222823,1.));
#1443 = CARTESIAN_POINT('',(0.103005392563,1.));
#1444 = CARTESIAN_POINT('',(5.209399377812E-02,1.));
#1445 = CARTESIAN_POINT('',(0.,1.));
#1446 = ( GEOMETRIC_REPRESENTATION_CONTEXT(2) 
PARAMETRIC_REPRESENTATION_CONTEXT() REPRESENTATION_CONTEXT('2D SPACE',''
  ) );
#1447 = ADVANCED_FACE('',(#1448),#202,.T.);
#1448 = FACE_BOUND('',#1449,.T.);
#1449 = EDGE_LOOP('',(#1450,#1451,#1452,#1453));
#1450 = ORIENTED_EDGE('',*,*,#188,.F.);
#1451 = ORIENTED_EDGE('',*,*,#879,.T.);
#1452 = ORIENTED_EDGE('',*,*,#853,.T.);
#1453 = ORIENTED_EDGE('',*,*,#219,.F.);
#1454 = ADVANCED_FACE('',(#1455),#629,.F.);
#1455 = FACE_BOUND('',#1456,.F.);
#1456 = EDGE_LOOP('',(#1457,#1458,#1478,#1479));
#1457 = ORIENTED_EDGE('',*,*,#265,.T.);
#1458 = ORIENTED_EDGE('',*,*,#1459,.F.);
#1459 = EDGE_CURVE('',#904,#266,#1460,.T.);
#1460 = SEAM_CURVE('',#1461,(#1464,#1471),.PCURVE_S1.);
#1461 = B_SPLINE_CURVE_WITH_KNOTS('',1,(#1462,#1463),.UNSPECIFIED.,.F.,
  .F.,(2,2),(0.,12.),.PIECEWISE_BEZIER_KNOTS.);
#1462 = CARTESIAN_POINT('',(6.,-7.347880794884E-16,-1.));
#1463 = CARTESIAN_POINT('',(6.,-7.347880794884E-16,11.));
#1464 = PCURVE('',#629,#1465);
#1465 = DEFINITIONAL_REPRESENTATION('',(#1466),#1470);
#1466 = B_SPLINE_CURVE_WITH_KNOTS('',2,(#1467,#1468,#1469),
  .UNSPECIFIED.,.F.,.F.,(3,3),(0.,12.),.PIECEWISE_BEZIER_KNOTS.);
#1467 = CARTESIAN_POINT('',(6.28318530718,0.));
#1468 = CARTESIAN_POINT('',(6.28318530718,6.));
#1469 = CARTESIAN_POINT('',(6.28318530718,12.));
#1470 = ( GEOMETRIC_REPRESENTATION_CONTEXT(2) 
PARAMETRIC_REPRESENTATION_CONTEXT() REPRESENTATION_CONTEXT('2D SPACE',''
  ) );
#1471 = PCURVE('',#629,#1472);
#1472 = DEFINITIONAL_REPRESENTATION('',(#1473),#1477);
#1473 = B_SPLINE_CURVE_WITH_KNOTS('',2,(#1474,#1475,#1476),
  .UNSPECIFIED.,.F.,.F.,(3,3),(0.,12.),.PIECEWISE_BEZIER_KNOTS.);
#1474 = CARTESIAN_POINT('',(0.,0.));
#1475 = CARTESIAN_POINT('',(8.881784197001E-16,6.));
#1476 = CARTESIAN_POINT('',(0.,12.));
#1477 = ( GEOMETRIC_REPRESENTATION_CONTEXT(2) 
PARAMETRIC_REPRESENTATION_CONTEXT() REPRESENTATION_CONTEXT('2D SPACE',''
  ) );
#1478 = ORIENTED_EDGE('',*,*,#903,.F.);
#1479 = ORIENTED_EDGE('',*,*,#1459,.T.);
#1480 = ( GEOMETRIC_REPRESENTATION_CONTEXT(3) 
GLOBAL_UNCERTAINTY_ASSIGNED_CONTEXT((#1484)) 
GLOBAL_UNIT_ASSIGNED_CONTEXT((#1481,#1482,#1483)) REPRESENTATION_CONTEXT
('Context #1','3D Context with UNIT and UNCERTAINTY') );
#1481 = ( LENGTH_UNIT() NAMED_UNIT(*) SI_UNIT(.MILLI.,.METRE.) );
#1482 = ( NAMED_UNIT(*) PLANE_ANGLE_UNIT() SI_UNIT($,.RADIAN.) );
#1483 = ( NAMED_UNIT(*) SI_UNIT($,.STERADIAN.) SOLID_ANGLE_UNIT() );
#1484 = UNCERTAINTY_MEASURE_WITH_UNIT(LENGTH_MEASURE(5.E-06),#1481,
  'distance_accuracy_value','confusion accuracy');
#1485 = PRODUCT_RELATED_PRODUCT_CATEGORY('part',$,(#7));
ENDSEC;
END-ISO-10303-21;
